<svg xmlns="http://www.w3.org/2000/svg" width="258.5" height="239.5" viewBox="0 0 258.5 239.5">
  <g id="Componente_36_1" data-name="Componente 36 – 1" transform="translate(0 0.5)">
    <g id="Grupo_91" data-name="Grupo 91" transform="translate(61.873 7.7)" opacity="0">
      <ellipse id="Elipse_44" data-name="Elipse 44" cx="10.607" cy="8.274" rx="10.607" ry="8.274" transform="translate(45.412 1.987)" fill="#3f3d56"/>
      <circle id="Elipse_45" data-name="Elipse 45" cx="15.275" cy="15.275" r="15.275" transform="translate(61.959 22.987)" fill="#3f3d56"/>
      <circle id="Elipse_46" data-name="Elipse 46" cx="3.817" cy="3.817" r="3.817" transform="translate(121.89 169.901)" fill="#3f3d56"/>
      <circle id="Elipse_47" data-name="Elipse 47" cx="3.817" cy="3.817" r="3.817" transform="translate(101.95 169.901)" fill="#3f3d56"/>
      <path id="Trazado_190" data-name="Trazado 190" d="M0,0H1.7V46.885H0Z" transform="translate(110.01 81.648)" fill="#3b3b3b"/>
      <rect id="Rectángulo_251" data-name="Rectángulo 251" width="1.697" height="46.885" transform="translate(119.131 81.648)" fill="#3b3b3b"/>
      <path id="Trazado_150" data-name="Trazado 150" d="M745.835,404.754l-.425-1.272a8.3,8.3,0,0,1,11.243-1.069l-.425,1.911h-1.7s-2.756-2.312-7.424.329Z" transform="translate(-635.411 -321.834)" fill="#3b3b3b"/>
      <rect id="Rectángulo_252" data-name="Rectángulo 252" width="15.275" height="19.517" transform="translate(66.627 74.965)" fill="#fbbebe"/>
      <rect id="Rectángulo_253" data-name="Rectángulo 253" width="4.667" height="9.335" transform="translate(87.841 69.448)" fill="#fbbebe"/>
      <path id="Trazado_151" data-name="Trazado 151" d="M585.13,740.135l-1.909,5.729s-.85,4.242,1.909,4.454a35.677,35.677,0,0,0,7.218-.636,6.116,6.116,0,0,0,0-3.606c-.636-1.7-2.545-6.365-2.545-6.365Z" transform="translate(-516.487 -570.234)" fill="#e4bbab"/>
      <path id="Trazado_152" data-name="Trazado 152" d="M640.464,742.09s-2.97,7.426-.636,8.7,5.517.211,8.062,1.272,9.546-1.484,9.546-1.484.85-2.334-3.817-2.97c0,0-5.079-3.82-5.079-4.667s-2.97-.85-2.97-.85Z" transform="translate(-557.397 -571.978)" fill="#e4bbab"/>
      <path id="Trazado_153" data-name="Trazado 153" d="M576.858,424.314s-17.395,3.606-19.514,2.545-4.242,14.435-4.242,14.435a74.985,74.985,0,0,0,2.12,21.851c2.97,12.516,0,18.67,0,18.67s.425,11.88,3.609,17.4a23.38,23.38,0,0,1,3.181,10.607s6.148.636,6.365-.85c0,0-2.548-5.94-2.123-11.455s-1.272-16.125-1.272-16.125,2.759-13.366,2.334-18.445,1.486-15.911,2.545-14,3.82,11.243,3.82,13.155,1.069,14.636,1.7,15.486.422,3.395.211,4.667a77.033,77.033,0,0,0,.847,15.911c1.059,5.092.214,10.818.425,11.669s6.365.211,6.576-1.275c0,0,.85-9.121,1.275-10.393s.625-17.419.625-17.419.422-12.516.847-13.788,1.069-28.641-1.7-31.811-1.7-11.243-1.7-11.243Z" transform="translate(-494.427 -338.846)" fill="#1b516a"/>
      <path id="Trazado_154" data-name="Trazado 154" d="M581.827,270.727a26.406,26.406,0,0,0-2.069,4.582,8.8,8.8,0,0,0-.2,4.961,12.3,12.3,0,0,0,1.369,2.86,9.807,9.807,0,0,0,1.73,2.31c1.6,1.465,3.935,1.759,6.1,1.989a3.09,3.09,0,0,0,1.12-.019,2.117,2.117,0,0,0,.8-.438,6.368,6.368,0,0,0,1.727-3.208,52.928,52.928,0,0,0,1.77-8.592,3.98,3.98,0,0,0,0-1.39,6.98,6.98,0,0,0-1.294-2.114,5.393,5.393,0,0,1-.92-2.78,2.267,2.267,0,0,0-.3-1.387,1.871,1.871,0,0,0-.719-.444c-1.264-.535-2.526-1.069-3.793-1.583-.764-.315-2.138-1.155-2.94-.535-.687.535-.356,1.775-.65,2.518A35.314,35.314,0,0,1,581.827,270.727Z" transform="translate(-513.695 -222.216)" fill="#fbbebe"/>
      <path id="Trazado_155" data-name="Trazado 155" d="M581.827,270.727a26.406,26.406,0,0,0-2.069,4.582,8.8,8.8,0,0,0-.2,4.961,12.3,12.3,0,0,0,1.369,2.86,9.807,9.807,0,0,0,1.73,2.31c1.6,1.465,3.935,1.759,6.1,1.989a3.09,3.09,0,0,0,1.12-.019,2.117,2.117,0,0,0,.8-.438,6.368,6.368,0,0,0,1.727-3.208,52.928,52.928,0,0,0,1.77-8.592,3.98,3.98,0,0,0,0-1.39,6.98,6.98,0,0,0-1.294-2.114,5.393,5.393,0,0,1-.92-2.78,2.267,2.267,0,0,0-.3-1.387,1.871,1.871,0,0,0-.719-.444c-1.264-.535-2.526-1.069-3.793-1.583-.764-.315-2.138-1.155-2.94-.535-.687.535-.356,1.775-.65,2.518A35.314,35.314,0,0,1,581.827,270.727Z" transform="translate(-513.695 -222.216)" opacity="0.1"/>
      <circle id="Elipse_48" data-name="Elipse 48" cx="7.426" cy="7.426" r="7.426" transform="translate(69.065 34.127)" fill="#fbbebe"/>
      <path id="Trazado_156" data-name="Trazado 156" d="M588.858,326.669a11.855,11.855,0,0,1-7.68.639,42.265,42.265,0,0,1-6.624-1.89,7.1,7.1,0,0,0-.623,2.957c-.115,3.071.5,6.119.732,9.185.3,3.9,0,7.881,1,11.655a3.207,3.207,0,0,1,.716-1.748,3.968,3.968,0,0,1,1.2-.882,9.57,9.57,0,0,1,6.571-.818c1.286.3,2.652.874,3.871.364a3.763,3.763,0,0,0,1.657-1.633,13.424,13.424,0,0,0,1.449-3.927,55.58,55.58,0,0,0,1.005-10.829c.027-.97.444-3.855-.361-4.566-.564-.495-.73.211-1.136.58A5.194,5.194,0,0,1,588.858,326.669Z" transform="translate(-509.761 -266.387)" fill="#3b3b3b"/>
      <path id="Trazado_157" data-name="Trazado 157" d="M557.6,282.876a1.6,1.6,0,0,0-1.772.062c-.545.329-.986.783-1.54,1.083-1.534.831-3.6.222-5.052,1.19-1.369.912-1.6,2.788-1.711,4.43a70.419,70.419,0,0,1-1.5,12.428,9.9,9.9,0,0,0-.487,3.267,8.669,8.669,0,0,0,.444,1.844l1.315,4.109a21.739,21.739,0,0,1,1.291,5.849,21.473,21.473,0,0,1-.874,5.817,68.217,68.217,0,0,0-1.8,11.471,8.06,8.06,0,0,0,.4,3.791,6.6,6.6,0,0,0,2.764,2.831c1.144.692,2.387,1.227,3.507,1.962,2.248,1.478,4.053,3.807,6.683,4.413a9.09,9.09,0,0,0,3.681-.075s-.687-31.2-2.6-35.658-3.606-23.759-3.606-24.4S557.6,282.876,557.6,282.876Z" transform="translate(-488.954 -235.343)" fill="#1b516a"/>
      <path id="Trazado_158" data-name="Trazado 158" d="M622.515,287.36s10.038,0,11.524,5.3-4.242,14-4.242,14,2.334,17.183,3.392,18.881.639,5.079.639,5.079a14.036,14.036,0,0,1,.422,7.218c-.847,3.817-4.031,10.607-4.031,10.607s-4.242,0-5.3,2.545-1.272-11.032-1.272-11.032-3.817-24.821-3.606-26.3,1.272-13.791,1.7-17.186S623.084,288.632,622.515,287.36Z" transform="translate(-543.546 -238.806)" fill="#1b516a"/>
      <path id="Trazado_159" data-name="Trazado 159" d="M653.322,300.06s4.881,1.484,4.881,3.181,1.494,10.818,1.494,13.788-.636,3.395,0,4.456-6.787.636-6.787.636l-1.35-12.091Z" transform="translate(-566.649 -248.111)" fill="#1b516a"/>
      <path id="Trazado_160" data-name="Trazado 160" d="M547.9,354.6s9.549.636,11.246-.639,8.91,1.7,9.546,3.395-10.185,1.909-11.88,1.909-9.76,2.548-9.76,2.548Z" transform="translate(-490.076 -287.378)" fill="#a0616a"/>
      <path id="Trazado_161" data-name="Trazado 161" d="M469,724.331s-4.451,11.227-2.139,12.564,26.695.385,26.695.385,4.061-2.513-.58-4.256a15.918,15.918,0,0,1-6.384-1.74,37.223,37.223,0,0,1-5.419-4.448s-.192-4.256-1.74-3.288a3.973,3.973,0,0,0-1.74,2.708Z" transform="translate(-430.838 -558.287)" fill="#3f3d56"/>
      <path id="Trazado_162" data-name="Trazado 162" d="M469,724.331s-4.451,11.227-2.139,12.564,26.695.385,26.695.385,4.061-2.513-.58-4.256a15.918,15.918,0,0,1-6.384-1.74,37.223,37.223,0,0,1-5.419-4.448s-.192-4.256-1.74-3.288a3.973,3.973,0,0,0-1.74,2.708Z" transform="translate(-430.838 -558.287)" fill="#3b3b3b"/>
      <path id="Trazado_163" data-name="Trazado 163" d="M442.589,736.935s-4.879,12.3-2.334,13.788,29.277.425,29.277.425,4.456-2.756-.636-4.667c0,0-4.242-.211-7-1.909a40.37,40.37,0,0,1-5.94-4.887s-.211-4.667-1.909-3.606a4.352,4.352,0,0,0-1.909,2.97Z" transform="translate(-411.291 -567.459)" fill="#3b3b3b"/>
      <path id="Trazado_164" data-name="Trazado 164" d="M496.965,433.156,494,459.888s-1.069,12.73-4.242,15.486c0,0,0,4.031-1.069,5.3L487.2,497.438s2.123,6.148,1.911,7.218.847,4.454.636,4.879-10.185,0-10.185,0l2.123-34.155,6.576-47.519Z" transform="translate(-440.628 -341.748)" fill="#3c354c"/>
      <path id="Trazado_165" data-name="Trazado 165" d="M496.965,433.156,494,459.888s-1.069,12.73-4.242,15.486c0,0,0,4.031-1.069,5.3L487.2,497.438s2.123,6.148,1.911,7.218.847,4.454.636,4.879-10.185,0-10.185,0l2.123-34.155,6.576-47.519Z" transform="translate(-440.628 -341.748)" fill="#1b516a"/>
      <path id="Trazado_166" data-name="Trazado 166" d="M461.483,429.345s-2.334,21.851-3.395,26.518a60.237,60.237,0,0,0-1.272,9.335s-.211,6.79-2.123,8.7A5.729,5.729,0,0,0,453,478.134s-1.911,21.426-.85,23.973,2.123,4.667,1.069,6.362-12.73,1.7-12.73.425,0-2.334-.636-2.97,0-4.667,0-4.667-2.545-18.881-.211-24.4,3.395-20.584,3.395-20.584-1.7-17.183-3.82-19.942.425-12.516.425-12.516Z" transform="translate(-410.449 -338.788)" fill="#1b516a"/>
      <path id="Trazado_167" data-name="Trazado 167" d="M502.49,173.924a2.855,2.855,0,0,0,1.374,1.171,41.031,41.031,0,0,1,8.287,6.664,9.738,9.738,0,0,1,.388-6.584,3.4,3.4,0,0,0,.489-2.213,2.848,2.848,0,0,0-1.069-1.288,33.3,33.3,0,0,0-3.28-2.237c-.8-.476-2.427-1.74-3.339-1.6a8.393,8.393,0,0,1-.612,3.475C504.594,171.59,502.584,174.138,502.49,173.924Z" transform="translate(-457.428 -151.223)" fill="#a0616a"/>
      <circle id="Elipse_49" data-name="Elipse 49" cx="8.699" cy="8.699" r="8.699" transform="translate(47.214 8.031)" fill="#a0616a"/>
      <path id="Trazado_168" data-name="Trazado 168" d="M459.855,202.848s1.484-7.426-2.759-9.971-9.121-5.515-9.121-5.515-1.486-.214-2.122,2.97c0,0-12.091,2.334-13.366,13.788s.85,28.216.85,28.216-1.909,14.638-4.242,22.487c0,0-1.911,1.7,6.576-.847s23.334,7.218,23.334,7.218,1.486-1.486,1.486-2.548,1.7-7.218,1.7-7.218,1.484-26.093,2.12-29.063S461.764,203.273,459.855,202.848Z" transform="translate(-403.518 -165.537)" fill="#e4bbab"/>
      <path id="Trazado_169" data-name="Trazado 169" d="M458.836,225.107s11.666-6.79,9.332-15.488-7.423-11.455-7.423-11.455-8.274-2.759-15.275,6.148l.425,4.031s7.637-15.486,15.911-5.729S458.836,225.107,458.836,225.107Z" transform="translate(-415.65 -173.158)" fill="#1b516a"/>
      <path id="Trazado_170" data-name="Trazado 170" d="M391.11,223.589v34.786l-2.168,11.866-1.013,5.531h-7.415l-10.393-3.82V246.29s8.7-17.186,11.455-20.367S391.11,223.589,391.11,223.589Z" transform="translate(-360.443 -192.008)" fill="#1b516a"/>
      <path id="Trazado_171" data-name="Trazado 171" d="M54.99,292.66l-1.01,5.531H46.553L36.16,294.373Z" transform="translate(-26.494 -214.423)" opacity="0.1"/>
      <path id="Trazado_172" data-name="Trazado 172" d="M105.2,203.886l18.245-22.276L107.32,204.736l-1.7.422Z" transform="translate(-77.078 -133.059)" fill="#e4bbab"/>
      <path id="Trazado_173" data-name="Trazado 173" d="M509.326,123.368a3.627,3.627,0,0,1,1.708-.454,3.224,3.224,0,0,0,1.687-.5c.821-.631.882-1.85,1.484-2.692.869-1.222,2.6-1.369,4.1-1.31a4.546,4.546,0,0,0,2.673-.4,4.092,4.092,0,0,0,1.417-2.371c.318-1.069.521-2.374-.267-3.165-.535-.551-1.4-.66-2-1.144a5.442,5.442,0,0,1-1.224-2.04,5.523,5.523,0,0,0-1.778-2.227,6.723,6.723,0,0,0-3.98-.954,31.274,31.274,0,0,1-4.157.027,12.746,12.746,0,0,0-3.376-.348,4.835,4.835,0,0,0-3.325,2.558,14.223,14.223,0,0,0-1.3,4.125l-.8,3.857a10.254,10.254,0,0,0-.3,3.63c.4,2.5,2.609,4.491,2.761,7.017a4.307,4.307,0,0,1,2.63-3.125.832.832,0,0,1,.535-.067c.219.072.348.291.487.476.364.484,1.505,1.216,2.139.874C509.032,124.825,508.6,123.862,509.326,123.368Z" transform="translate(-455.464 -105.74)" fill="#3f3d56"/>
      <path id="Trazado_174" data-name="Trazado 174" d="M724.014,575.3s-5.729.211-6.576,6.787,0,37.125,0,37.125,6.576,4.879,14.638,4.242,21-2.97,21-2.97V584.667a9.361,9.361,0,0,0-9.8-9.4,3.466,3.466,0,0,0-.382.029Z" transform="translate(-614.64 -449.739)" fill="#e4bbab"/>
      <circle id="Elipse_50" data-name="Elipse 50" cx="3.817" cy="3.817" r="3.817" transform="translate(113.83 170.962)" fill="#3f3d56"/>
      <circle id="Elipse_51" data-name="Elipse 51" cx="3.817" cy="3.817" r="3.817" transform="translate(134.62 169.265)" fill="#3f3d56"/>
      <path id="Trazado_175" data-name="Trazado 175" d="M452.978,313.91s-1.486,9.332,4.665,8.485c0,0,3.184-.425,3.609,0s16.122-2.334,18.245-4.667c0,0,2.545-.847,3.817.425s14,2.545,10.188-1.275-9.757-4.667-9.757-4.667l-8.062.422s-4.242,1.275-6.787,0-9.765-.834-9.765-.834Z" transform="translate(-421.036 -256.657)" fill="#a0616a"/>
      <path id="Trazado_176" data-name="Trazado 176" d="M459.776,209.59s-9.546,1.069-9.546,14.85v17.606s5.3-2.334,6.365-2.123,5.3-2.759,5.3-2.759,4.879-11.452,4.453-14.633S466.141,210.012,459.776,209.59Z" transform="translate(-419.138 -181.825)" fill="#e4bbab"/>
      <path id="Trazado_177" data-name="Trazado 177" d="M289.336,231.61l-9.546,6.79,5.94.636,8.274-7Z" transform="translate(-204.997 -169.693)" fill="#3f3d56"/>
      <path id="Trazado_178" data-name="Trazado 178" d="M642.784,357.4s2.334,7.218-.847,9.335-8.487-7.426-8.487-7.426-5.729-6.787-1.909-8.273,5.378,4.985,5.378,4.985l5.01,4.349Z" transform="translate(-551.018 -285.295)" fill="#fbbebe"/>
      <ellipse id="Elipse_52" data-name="Elipse 52" cx="8.485" cy="5.411" rx="8.485" ry="5.411" transform="translate(68.749 30.625)" fill="#3f3d56"/>
      <circle id="Elipse_53" data-name="Elipse 53" cx="6.151" cy="6.151" r="6.151" transform="translate(72.567 16.839)" fill="#3f3d56"/>
      <ellipse id="Elipse_54" data-name="Elipse 54" cx="8.167" cy="4.242" rx="8.167" ry="4.242" transform="translate(47.746 7.079)" fill="#3f3d56"/>
      <ellipse id="Elipse_55" data-name="Elipse 55" cx="2.863" cy="7.108" rx="2.863" ry="7.108" transform="translate(45.412 4.954)" fill="#3f3d56"/>
      <path id="Trazado_179" data-name="Trazado 179" d="M345.711,689.651c.8-1.473-.107-3.277-1.144-4.593s-2.3-2.673-2.278-4.355c.04-2.406,2.593-3.825,4.633-5.1a22.575,22.575,0,0,0,4.16-3.344,6.03,6.03,0,0,0,1.278-1.711,6.944,6.944,0,0,0,.385-3.042q-.134-5.149-.511-10.286" transform="translate(-340.051 -509.795)" fill="none" stroke="#3f3d56" stroke-miterlimit="10" stroke-width="4"/>
      <path id="Trazado_180" data-name="Trazado 180" d="M373.5,646.715a3.742,3.742,0,0,0-1.871-3.074l-.839,1.663.027-2.01a3.742,3.742,0,1,0,2.684,3.422Z" transform="translate(-357.435 -499.48)" fill="#e4bbab"/>
      <path id="Trazado_181" data-name="Trazado 181" d="M349.627,736.549a3.742,3.742,0,1,1,.182-3.021l-2.344,1.906,2.58-.6a3.713,3.713,0,0,1-.417,1.714Z" transform="translate(-340.249 -563.918)" fill="#e4bbab"/>
      <path id="Trazado_182" data-name="Trazado 182" d="M351.239,703.7a3.742,3.742,0,0,1-3.922-3.574,3.694,3.694,0,0,1,.323-1.708,3.758,3.758,0,0,1,2.406-2.08l-.019,1.548.847-1.681h0a3.742,3.742,0,0,1,3.922,3.574,3.7,3.7,0,0,1-.16,1.28A3.742,3.742,0,0,1,351.239,703.7Z" transform="translate(-343.732 -538.357)" fill="#e4bbab"/>
      <path id="Trazado_183" data-name="Trazado 183" d="M385.475,681.082a3.742,3.742,0,1,1,1.66-7.023l-.663,1.818,1.363-1.31a3.743,3.743,0,0,1-2.36,6.515Z" transform="translate(-368.851 -521.796)" fill="#e4bbab"/>
      <path id="Trazado_184" data-name="Trazado 184" d="M373.038,653.341c-.863.1-1.708.366-2.577.42a2.8,2.8,0,0,1-2.371-.831,11.389,11.389,0,0,1-.7-1.219,2.686,2.686,0,0,0-.944-.89,3.742,3.742,0,1,0,7.012,2.491C373.321,653.317,373.179,653.328,373.038,653.341Z" transform="translate(-357.482 -505.106)" opacity="0.1"/>
      <path id="Trazado_185" data-name="Trazado 185" d="M385.36,686.936a3.759,3.759,0,0,1-3.569-5.346,2.754,2.754,0,0,1,.757.757,12.066,12.066,0,0,0,.743,1.24,3.057,3.057,0,0,0,2.486.869c.9-.043,1.78-.3,2.673-.38.126,0,.254-.021.38-.024A3.742,3.742,0,0,1,385.36,686.936Z" transform="translate(-368.735 -527.651)" opacity="0.1"/>
      <path id="Trazado_186" data-name="Trazado 186" d="M351.239,709.782a3.742,3.742,0,0,1-3.922-3.574,3.694,3.694,0,0,1,.323-1.708,3.025,3.025,0,0,1,.8.762c.291.412.473.885.8,1.264a3.465,3.465,0,0,0,2.657.93c.96-.024,1.823-.249,2.745-.318A3.742,3.742,0,0,1,351.239,709.782Z" transform="translate(-343.732 -544.436)" opacity="0.1"/>
      <path id="Trazado_187" data-name="Trazado 187" d="M349.36,743.121a3.746,3.746,0,1,1-6.838-3.061,3.806,3.806,0,0,1,.823.733,15.292,15.292,0,0,0,1,1.337,4.673,4.673,0,0,0,3.109,1.093A16.636,16.636,0,0,0,349.36,743.121Z" transform="translate(-339.982 -570.49)" opacity="0.1"/>
      <path id="Trazado_188" data-name="Trazado 188" d="M333.92,767.812s2.962-.091,3.855-.727,4.544-1.4,4.777-.374,4.448,5.079,1.107,5.1-7.768-.521-8.658-1.069S333.92,767.812,333.92,767.812Z" transform="translate(-333.92 -589.651)" fill="#656380"/>
      <path id="Trazado_189" data-name="Trazado 189" d="M343.717,775.809c-3.344.027-7.768-.521-8.658-1.069-.679-.412-.949-1.9-1.04-2.58h-.1s.187,2.387,1.069,2.941,5.314,1.091,8.659,1.069c.965,0,1.3-.35,1.28-.861C344.8,775.611,344.436,775.8,343.717,775.809Z" transform="translate(-333.92 -594.009)" opacity="0.2"/>
    </g>
    <g id="Item" transform="translate(-96 -1318)">
      <rect id="Area_" data-name="Area " width="18" height="18" transform="translate(185 1539)" fill="#fff" opacity="0"/>
      <circle id="Dot_" data-name="Dot " cx="3" cy="3" r="3" transform="translate(191 1545)" fill="#1b516a" opacity="0.3"/>
    </g>
    <g id="Item-2" data-name="Item" transform="translate(-77 -1318)">
      <rect id="Area_2" data-name="Area " width="18" height="18" transform="translate(185 1539)" fill="#fff" opacity="0"/>
      <circle id="Dot_2" data-name="Dot " cx="3" cy="3" r="3" transform="translate(191 1545)" fill="#1b516a" opacity="0.3"/>
    </g>
    <g id="Item-3" data-name="Item" transform="translate(-58 -1318)" opacity="0.3">
      <rect id="Area_3" data-name="Area " width="18" height="18" transform="translate(185 1539)" fill="#fff" opacity="0"/>
      <circle id="Dot_3" data-name="Dot " cx="3" cy="3" r="3" transform="translate(191 1545)" fill="#1b516a"/>
    </g>
    <g id="Item-4" data-name="Item" transform="translate(-39 -1318)">
      <rect id="Area_4" data-name="Area " width="18" height="18" transform="translate(185 1539)" fill="#fff" opacity="0"/>
      <circle id="Dot_4" data-name="Dot " cx="3" cy="3" r="3" transform="translate(191 1545)" fill="#1b516a"/>
    </g>
    <g id="Grupo_92" data-name="Grupo 92" transform="translate(40 -0.739)" opacity="0">
      <rect id="Rectángulo_254" data-name="Rectángulo 254" width="111" height="142" rx="38.142" transform="translate(97 7.739)" fill="#f2f2f2"/>
      <rect id="Rectángulo_255" data-name="Rectángulo 255" width="111" height="143" rx="38.142" transform="translate(93 0.739)" fill="none" stroke="#3f3d56" stroke-miterlimit="10" stroke-width="1"/>
      <rect id="Rectángulo_256" data-name="Rectángulo 256" width="98.158" height="113.329" transform="translate(98.038 15.402)" fill="none" stroke="#3f3d56" stroke-miterlimit="10" stroke-width="1"/>
      <circle id="Elipse_56" data-name="Elipse 56" cx="2.406" cy="2.406" r="2.406" transform="translate(145.192 5.546)" fill="none" stroke="#3f3d56" stroke-miterlimit="10" stroke-width="1"/>
      <circle id="Elipse_57" data-name="Elipse 57" cx="5.293" cy="5.293" r="5.293" transform="translate(142.305 130.769)" fill="none" stroke="#3f3d56" stroke-miterlimit="10" stroke-width="1"/>
      <path id="Trazado_191" data-name="Trazado 191" d="M717.6,174.035a16.121,16.121,0,0,0-16.121,16.121c0,8.9,16.889,41.743,16.889,41.743s15.354-32.839,15.354-41.743A16.121,16.121,0,0,0,717.6,174.035Zm0,26.869a8.445,8.445,0,1,1,8.445-8.445A8.444,8.444,0,0,1,717.6,200.9Z" transform="translate(-573.014 -146.219)" fill="#1a88a4"/>
      <path id="Trazado_211" data-name="Trazado 211" d="M16,0c8.837,0,16,2.239,16,5s-7.163,5-16,5S0,7.761,0,5,7.163,0,16,0Z" transform="translate(129 91.739)" fill="#1a88a4"/>
      <path id="Trazado_192" data-name="Trazado 192" d="M513.03,156.425a5.529,5.529,0,0,0-4.766,3.332c-1.192,2.881.343,6.265,2.646,8.365s5.262,3.3,7.951,4.88a21.311,21.311,0,0,1,8.663,8.84,13.078,13.078,0,0,1-.125,12.065c-1.971,3.35-5.556,5.354-8.974,7.2" transform="translate(-425.968 -132.846)" fill="none" stroke="#3f3d56" stroke-miterlimit="10" stroke-width="1"/>
      <ellipse id="Elipse_59" data-name="Elipse 59" cx="4" cy="2" rx="4" ry="2" transform="translate(86 21.739)" fill="#e4bbab"/>
      <ellipse id="Elipse_60" data-name="Elipse 60" cx="3.5" cy="1.5" rx="3.5" ry="1.5" transform="translate(90 35.739)" fill="#e4bbab"/>
      <ellipse id="Elipse_61" data-name="Elipse 61" cx="4" cy="1.5" rx="4" ry="1.5" transform="translate(82 37.739)" fill="#e4bbab"/>
      <ellipse id="Elipse_62" data-name="Elipse 62" cx="4" cy="2" rx="4" ry="2" transform="translate(94 48.739)" fill="#e4bbab"/>
      <ellipse id="Elipse_63" data-name="Elipse 63" cx="4.5" cy="2" rx="4.5" ry="2" transform="translate(102 48.739)" fill="#e4bbab"/>
      <line id="Línea_57" data-name="Línea 57" x2="86.251" transform="translate(11.425 187.803)" fill="none" stroke="#3f3d56" stroke-miterlimit="10" stroke-width="1"/>
      <path id="Trazado_193" data-name="Trazado 193" d="M186.617,665.791a5.149,5.149,0,0,0-4.438,3.1c-1.11,2.682.319,5.833,2.464,7.79s4.9,3.074,7.4,4.544a19.845,19.845,0,0,1,8.067,8.232A12.178,12.178,0,0,1,200,700.694c-1.836,3.119-5.173,4.986-8.357,6.707" transform="translate(-178.355 -519.667)" fill="none" stroke="#3f3d56" stroke-miterlimit="10" stroke-width="1"/>
      <ellipse id="Elipse_64" data-name="Elipse 64" cx="3.921" cy="1.904" rx="3.921" ry="1.904" transform="translate(7.169 144.453)" fill="#e4bbab"/>
      <ellipse id="Elipse_65" data-name="Elipse 65" cx="3.921" cy="1.904" rx="3.921" ry="1.904" transform="translate(10.305 156.999)" fill="#e4bbab"/>
      <ellipse id="Elipse_66" data-name="Elipse 66" cx="3.921" cy="1.904" rx="3.921" ry="1.904" transform="translate(3.136 159.015)" fill="#e4bbab"/>
      <ellipse id="Elipse_67" data-name="Elipse 67" cx="3.921" cy="1.904" rx="3.921" ry="1.904" transform="translate(14.338 169.544)" fill="#e4bbab"/>
      <ellipse id="Elipse_68" data-name="Elipse 68" cx="3.921" cy="1.904" rx="3.921" ry="1.904" transform="translate(22.179 169.544)" fill="#e4bbab"/>
      <path id="Trazado_194" data-name="Trazado 194" d="M203.176,697.77A4.2,4.2,0,0,1,206.8,700.3c.906,2.191-.261,4.764-2.012,6.361s-4,2.511-6.046,3.711a16.206,16.206,0,0,0-6.588,6.723,9.946,9.946,0,0,0,.095,9.175c1.5,2.547,4.225,4.072,6.825,5.478" transform="translate(-185.407 -543.952)" fill="none" stroke="#3f3d56" stroke-miterlimit="10" stroke-width="1"/>
      <ellipse id="Elipse_69" data-name="Elipse 69" cx="3.202" cy="1.555" rx="3.202" ry="1.555" transform="translate(12.258 152.453)" fill="#e4bbab"/>
      <ellipse id="Elipse_70" data-name="Elipse 70" cx="3.202" cy="1.555" rx="3.202" ry="1.555" transform="translate(9.697 162.699)" fill="#e4bbab"/>
      <ellipse id="Elipse_71" data-name="Elipse 71" cx="3.202" cy="1.555" rx="3.202" ry="1.555" transform="translate(15.551 164.346)" fill="#e4bbab"/>
      <ellipse id="Elipse_72" data-name="Elipse 72" cx="3.202" cy="1.555" rx="3.202" ry="1.555" transform="translate(6.404 172.944)" fill="#e4bbab"/>
      <ellipse id="Elipse_73" data-name="Elipse 73" cx="3.202" cy="1.555" rx="3.202" ry="1.555" transform="translate(0 172.944)" fill="#e4bbab"/>
      <path id="Trazado_195" data-name="Trazado 195" d="M293.167,795.49a16.112,16.112,0,0,0,3.809,1.344c1.568.224,2.45-1.362,2.121-1.913s1.015-.1,1.911,1.913c0,0,3.809,4.481,6.049,4.7s2.258,3.257,1.12,3.361c-1.232.112-3.36.9-6.049,0s-5.153-3.361-6.273-3.361-4.929-1.792-3.809-2.688S293.167,795.49,293.167,795.49Z" transform="translate(-261.928 -617.565)" fill="#3b3b3b"/>
      <path id="Trazado_196" data-name="Trazado 196" d="M387.579,809.5a12.442,12.442,0,0,0,3.418-.21c1.539-.374,1.77-2.174,1.26-2.564s.9-.472,2.485,1.067c0,0,5.2,2.747,7.363,2.123s3.305,2.186,2.287,2.7a12.979,12.979,0,0,1-5.612,1.583c-2.829.166-6.037-.546-7.077-.13s-5.242.165-4.534-1.083A6.929,6.929,0,0,0,387.579,809.5Z" transform="translate(-334.26 -626.511)" fill="#3b3b3b"/>
      <circle id="Elipse_74" data-name="Elipse 74" cx="8.737" cy="8.737" r="8.737" transform="translate(40.773 58.65)" fill="#ffc1c7"/>
      <path id="Trazado_197" data-name="Trazado 197" d="M338.133,351.688s1.344,9.409-1.792,10.753,15.906.9,15.906.9-2.688-8.513-2.016-10.753S338.133,351.688,338.133,351.688Z" transform="translate(-295.456 -280.828)" fill="#ffc1c7"/>
      <path id="Trazado_198" data-name="Trazado 198" d="M304.984,570.476s-.672,17.026-1.344,18.818-1.344,13.89-1.344,13.89l-5.825,21.955,5.377,1.792s7.393-12.994,8.289-14.562,8.065-26.66,8.065-26.66-.672,15.458-.672,20.611,1.344,23.971,1.344,23.971l4.257-.448,5.6-23.747s8.065-32.036,2.688-35.621S304.984,570.476,304.984,570.476Z" transform="translate(-265.443 -446.073)" fill="#3b3b3b"/>
      <path id="Trazado_199" data-name="Trazado 199" d="M456.26,594.317s.224,12.994-2.464,10.977,0-12.1,0-12.1Z" transform="translate(-384.01 -464.538)" fill="#ffc1c7"/>
      <path id="Trazado_200" data-name="Trazado 200" d="M301.682,575.693s.224,12.994-2.464,10.977,0-12.1,0-12.1Z" transform="translate(-266.621 -450.395)" fill="#ffc1c7"/>
      <path id="Trazado_201" data-name="Trazado 201" d="M328.967,407.524s-4.481-5.153-8.289-4.481-24.643.448-24.643.448-6.945,8.737-5.153,10.529,7.617,33.6,7.617,33.6,15.458-2.016,20.835-2.016,7.617-.9,7.617-.9-7.169-14.338-3.809-20.835a133.2,133.2,0,0,1,8.289-13.442Z" transform="translate(-260.974 -320.086)" fill="#1b516a"/>
      <path id="Trazado_202" data-name="Trazado 202" d="M425.455,428.376l3.808,1.344s2.24,7.841,2.24,14.114.224,9.409,1.12,11.65,3.809,12.77,2.24,15.01a14.94,14.94,0,0,1-3.136,3.36l-5.153-.448s-.224-7.393-1.568-8.065-3.136-4.929-3.136-4.929-4.257-13.666-1.568-18.146S425.455,428.376,425.455,428.376Z" transform="translate(-358.806 -339.37)" fill="#3b3b3b"/>
      <path id="Trazado_203" data-name="Trazado 203" d="M299.21,433.082s2.24-9.857-2.016-9.409-10.081.672-11.65.672-10.529-1.12-11.874,4.7-3.136,12.994.672,17.474c0,0,1.344,19.715,6.5,21.059S299.658,470.5,304.586,464a16.709,16.709,0,0,0,2.912-13.666h-2.24Z" transform="translate(-246.899 -335.787)" fill="#e4bbab"/>
      <path id="Trazado_204" data-name="Trazado 204" d="M248.163,437.74l1.792-12.1-.9,12.546Z" transform="translate(-188.459 -322.746)" fill="#3f3d56"/>
      <path id="Trazado_205" data-name="Trazado 205" d="M290.883,525.22s3.809,1.792,11.65.672v3.36l-11.65-.9Z" transform="translate(-261.199 -412.915)" opacity="0.1"/>
      <path id="Trazado_206" data-name="Trazado 206" d="M208.587,352.887l5.825-3.137-4.929,4.257Z" transform="translate(-158.404 -265.113)" fill="#3f3d56"/>
      <path id="Trazado_207" data-name="Trazado 207" d="M335.26,385.969s4.481,1.568,4.481,0-4.033-2.912-6.5-3.809-14.114-2.24-15.906-2.912-10.305-1.792-10.977.9-.9,8.289,2.464,8.961,12.1-1.12,16.578-.672S335.26,385.969,335.26,385.969Z" transform="translate(-272.643 -301.444)" fill="#6c63ff"/>
      <path id="Trazado_208" data-name="Trazado 208" d="M335.26,385.969s4.481,1.568,4.481,0-4.033-2.912-6.5-3.809-14.114-2.24-15.906-2.912-10.305-1.792-10.977.9-.9,8.289,2.464,8.961,12.1-1.12,16.578-.672S335.26,385.969,335.26,385.969Z" transform="translate(-272.643 -301.444)" fill="#3b3b3b"/>
      <path id="Trazado_209" data-name="Trazado 209" d="M130.367,360.14l1.523-3.2.27,3.87Z" transform="translate(-99.003 -270.574)" fill="#3f3d56"/>
      <ellipse id="Elipse_75" data-name="Elipse 75" cx="8.18" cy="9.503" rx="8.18" ry="9.503" transform="translate(39.817 57.399)" fill="#2f2e41"/>
      <ellipse id="Elipse_76" data-name="Elipse 76" cx="8.18" cy="5.173" rx="8.18" ry="5.173" transform="translate(41.26 56.677)" fill="#2f2e41"/>
      <ellipse id="Elipse_77" data-name="Elipse 77" cx="0.842" cy="1.443" rx="0.842" ry="1.443" transform="translate(54.973 68.225)" fill="#ffc1c7"/>
      <path id="Trazado_210" data-name="Trazado 210" d="M394.618,302.122a5.334,5.334,0,0,0,2.146-2.486,2.621,2.621,0,0,1,.043.787,2.979,2.979,0,0,0,1.024-.309l-.077.839a8.654,8.654,0,0,0,1.691-1.354,6.658,6.658,0,0,1-.592,3.575,7.148,7.148,0,0,1-1.653,2.019" transform="translate(-339.977 -241.574)" fill="#2f2e41"/>
    </g>
    <g id="Grupo_93" data-name="Grupo 93" transform="translate(0 5.345)" opacity="0">
      <ellipse id="Elipse_78" data-name="Elipse 78" cx="35.846" cy="5.916" rx="35.846" ry="5.916" transform="translate(165.308 169.822)" fill="#3b3b3b" opacity="0.65"/>
      <path id="Trazado_212" data-name="Trazado 212" d="M975.2,626.191c-.07,12.711-7.651,17.106-16.972,17.055q-.325,0-.646-.011-.648-.017-1.282-.066c-8.409-.642-14.919-5.344-14.854-17.165.068-12.233,15.788-27.585,16.967-28.719h0l.068-.065S975.27,613.481,975.2,626.191Z" transform="translate(-743.727 -472.235)" fill="#e4bbab"/>
      <path id="Trazado_213" data-name="Trazado 213" d="M989.121,641.3l6.22-8.59-6.241,9.537-.022.99q-.648-.018-1.282-.066l.735-12.712,0-.1.011-.019.07-1.2-6.151-9.629,6.174,8.729.014.255.556-9.6-5.256-9.944,5.33,8.256.633-19.916,0-.066v.065l-.174,15.708,5.322-6.2-5.353,7.551-.187,8.6,4.984-8.228-5.01,9.493-.1,4.783,7.23-11.452-7.266,13.12Z" transform="translate(-775.222 -472.233)" fill="#3f3d56"/>
      <circle id="Elipse_79" data-name="Elipse 79" cx="11.298" cy="11.298" r="11.298" transform="translate(186.482 34.715)" fill="#2f2e41"/>
      <circle id="Elipse_80" data-name="Elipse 80" cx="7.672" cy="7.672" r="7.672" transform="translate(188.426 42.287)" fill="#ffb8b8"/>
      <path id="Trazado_214" data-name="Trazado 214" d="M912.049,289.8s3.318,7.672,1.659,8.5-2.488,4.562-2.488,4.562l4.354,9.124,6.013,3.732h3.525s3.525-15.759,2.281-17.625-5.806-2.9-5.806-2.9a9.791,9.791,0,0,1-.622-4.769C921.379,288.142,912.049,289.8,912.049,289.8Z" transform="translate(-720.513 -235.694)" fill="#ffb8b8"/>
      <path id="Trazado_215" data-name="Trazado 215" d="M846.995,358.976l-5.391-4.354s-9.746-6.843-8.5-1.866,6.843,5.391,6.843,5.391l9.331,7.465Z" transform="translate(-660.435 -283.097)" fill="#ffb8b8"/>
      <path id="Trazado_216" data-name="Trazado 216" d="M887.9,480.448s-2.488,10.368,0,24.468l1.037,5.6s0,4.354,1.037,6.013c0,0,2.7,24.675,4.147,24.675s6.013-.83,6.428-1.452-8.087-60.34-8.087-60.34Z" transform="translate(-701.752 -381.76)" fill="#2f2e41"/>
      <path id="Trazado_217" data-name="Trazado 217" d="M887.9,480.448s-2.488,10.368,0,24.468l1.037,5.6s0,4.354,1.037,6.013c0,0,2.7,24.675,4.147,24.675s6.013-.83,6.428-1.452-8.087-60.34-8.087-60.34Z" transform="translate(-701.752 -381.76)" fill="#3b3b3b"/>
      <path id="Trazado_218" data-name="Trazado 218" d="M897.862,738.6l-3.212,11.9s-6.424,3.779-2.456,4.535a16.544,16.544,0,0,0,7.936-.756l1.889-5.479,1.89-1.134v5.857h.567l1.323-7.747s-.189-3.968-1.323-4.346-1.7-2.456-1.7-2.456Z" transform="translate(-704.908 -580.816)" fill="#2f2e41"/>
      <path id="Trazado_219" data-name="Trazado 219" d="M897.862,738.6l-3.212,11.9s-6.424,3.779-2.456,4.535a16.544,16.544,0,0,0,7.936-.756l1.889-5.479,1.89-1.134v5.857h.567l1.323-7.747s-.189-3.968-1.323-4.346-1.7-2.456-1.7-2.456Z" transform="translate(-704.908 -580.816)" fill="#3b3b3b"/>
      <path id="Trazado_220" data-name="Trazado 220" d="M887.983,462.62a67.415,67.415,0,0,0,2.281,7.257s.829,17.625,3.525,23.638l2.9,7.672s4.769,22.6,3.525,25.09c0,0,6.428,1.451,6.843,0,0,0-.207-12.027.415-13.685s1.659-10.782-3.318-17.418V475.061s7.88-6.635,3.318-15.137S887.983,462.62,887.983,462.62Z" transform="translate(-702.667 -364.347)" fill="#3b3b3b"/>
      <path id="Trazado_221" data-name="Trazado 221" d="M918.1,751.1l-3.525,13.063s-7.05,4.147-2.7,4.977a18.158,18.158,0,0,0,8.709-.829l2.073-6.013,2.074-1.244v6.428h.622l1.451-8.5s-.207-4.354-1.451-4.769-1.866-2.7-1.866-2.7Z" transform="translate(-719.93 -590.416)" fill="#3b3b3b"/>
      <path id="Trazado_222" data-name="Trazado 222" d="M874.732,321.7s-5.22,3-5.22,3.207.622,3.525.622,3.525-6.428,6.428-2.073,12.027c0,0,1.451,1.037,1.451,4.354v3.318s-12.234,7.672-9.124,10.16,6.428,2.074,7.465,3.525,7.05-1.244,8.294-1.659,1.452-.829,2.488.622,6.843-1.037,6.843-1.037a39.058,39.058,0,0,1,4.562-1.037,2.869,2.869,0,0,0,1.451-.415l-8.916-9.124,4.458-11.3s-13.167-8.19-13.167-10.471A29.575,29.575,0,0,1,874.732,321.7Z" transform="translate(-681.086 -260.638)" fill="#ea8c8c"/>
      <path id="Trazado_223" data-name="Trazado 223" d="M911.663,323.9a9.652,9.652,0,0,0-.622,8.916,120.064,120.064,0,0,0,5.391,11.2l-5.184,1.659H906.48s-9.953-1.659-8.916,2.074,8.087,2.074,8.087,2.074H909.8s9.331,1.037,10.575-.622c0,0,3.318-.207,1.866-6.843s-5.689-17.993-5.689-17.993Z" transform="translate(-709.967 -262.332)" fill="#ffb8b8"/>
      <ellipse id="Elipse_81" data-name="Elipse 81" cx="7.236" cy="3.681" rx="7.236" ry="3.681" transform="translate(187.37 39.158)" fill="#2f2e41"/>
      <ellipse id="Elipse_82" data-name="Elipse 82" cx="1.037" cy="2.281" rx="1.037" ry="2.281" transform="translate(202.629 47.16)" fill="#ffb8b8"/>
      <circle id="Elipse_83" data-name="Elipse 83" cx="6.221" cy="6.221" r="6.221" transform="translate(196.616 29.743)" fill="#2f2e41"/>
      <circle id="Elipse_84" data-name="Elipse 84" cx="25.521" cy="25.521" r="25.521" transform="translate(44.778 13.214)" fill="#e4bbab" opacity="0.3"/>
      <circle id="Elipse_85" data-name="Elipse 85" cx="15.081" cy="15.081" r="15.081" transform="translate(5.8 94.65)" fill="#e4bbab" opacity="0.3"/>
      <circle id="Elipse_86" data-name="Elipse 86" cx="30.858" cy="30.858" r="30.858" transform="translate(86.772 78.873)" fill="#e4bbab" opacity="0.3"/>
      <path id="Trazado_224" data-name="Trazado 224" d="M153.878,311.728l-.454-.1q.146-.684.3-1.363l.452.105Q154.023,311.048,153.878,311.728Z" transform="translate(-138.535 -251.86)" fill="#1b516a"/>
      <path id="Trazado_225" data-name="Trazado 225" d="M303.25,114.557c-.238-.884-.5-1.777-.767-2.654l.443-.137c.273.882.533,1.78.772,2.67Zm-145.132-.2-.448-.122c.243-.892.506-1.793.783-2.678l.443.138C158.621,112.572,158.359,113.467,158.118,114.354Zm143.5-5.069c-.3-.866-.627-1.737-.96-2.586l.432-.169c.336.855.661,1.73.966,2.6Zm-141.848-.221-.437-.155c.309-.873.638-1.751.979-2.611l.431.171c-.338.854-.666,1.727-.973,2.594ZM299.6,104.149c-.365-.839-.752-1.683-1.149-2.51l.418-.2c.4.832.789,1.681,1.156,2.525Zm-137.791-.236-.425-.187c.372-.847.766-1.7,1.169-2.53l.418.2c-.4.827-.791,1.673-1.162,2.514Zm135.4-4.74c-.428-.812-.876-1.626-1.331-2.419l.4-.231c.458.8.909,1.617,1.34,2.434ZM164.228,98.93l-.41-.218c.434-.817.889-1.637,1.352-2.436l.4.233C165.112,97.3,164.66,98.118,164.228,98.93Zm130.234-4.545c-.485-.777-.992-1.556-1.506-2.316l.384-.26c.517.764,1.027,1.548,1.515,2.33ZM167,94.14l-.393-.247c.492-.782,1.006-1.565,1.527-2.329l.383.261c-.518.759-1.029,1.538-1.518,2.314Zm124.362-4.331c-.539-.737-1.1-1.477-1.672-2.2l.364-.288c.574.728,1.14,1.473,1.683,2.214Zm-121.242-.24-.373-.276c.549-.744,1.119-1.488,1.693-2.21l.363.289c-.571.717-1.138,1.456-1.683,2.2Zm117.817-4.1c-.594-.7-1.209-1.4-1.829-2.073l.342-.313c.624.681,1.243,1.383,1.84,2.086ZM173.569,85.24l-.352-.3c.6-.7,1.223-1.4,1.85-2.079l.341.315c-.623.675-1.242,1.37-1.839,2.067Zm110.639-3.847c-.645-.655-1.31-1.305-1.977-1.934l.319-.338c.67.633,1.339,1.287,1.988,1.946ZM177.32,81.176l-.329-.327c.652-.656,1.323-1.308,2-1.938l.317.339c-.669.626-1.337,1.274-1.984,1.926ZM280.185,77.6c-.69-.605-1.4-1.206-2.113-1.785l.293-.36c.716.583,1.432,1.187,2.126,1.8Zm-98.827-.2-.3-.35c.7-.606,1.414-1.207,2.132-1.786l.291.361c-.713.575-1.426,1.173-2.119,1.775Zm94.536-3.292c-.731-.552-1.485-1.1-2.239-1.626l.266-.38c.759.53,1.517,1.081,2.253,1.636Zm-90.236-.18-.278-.372c.74-.554,1.5-1.1,2.256-1.625l.264.382C187.148,72.833,186.394,73.376,185.658,73.927Zm85.7-2.989c-.772-.5-1.564-.988-2.353-1.458l.237-.4c.795.472,1.591.966,2.368,1.467ZM190.2,70.78l-.25-.391c.777-.5,1.574-.987,2.368-1.455l.236.4c-.789.465-1.581.951-2.354,1.446Zm76.4-2.671c-.8-.439-1.631-.87-2.455-1.281l.207-.415c.829.413,1.661.847,2.47,1.289Zm-71.639-.133-.221-.408c.811-.438,1.642-.868,2.468-1.276l.206.416c-.821.406-1.647.832-2.453,1.268Zm66.683-2.338c-.835-.379-1.691-.747-2.544-1.1l.176-.43c.858.351,1.719.722,2.56,1.1Zm-61.733-.107-.19-.423c.84-.377,1.7-.744,2.554-1.09l.174.43c-.85.344-1.7.709-2.538,1.083Zm56.606-1.99c-.865-.317-1.746-.621-2.62-.9l.143-.441c.879.286,1.766.592,2.636.91Zm-51.492-.082-.158-.436c.866-.314,1.75-.616,2.626-.9l.142.442c-.871.28-1.748.58-2.61.892Zm46.22-1.63c-.884-.251-1.783-.489-2.673-.706l.11-.451c.9.219,1.8.458,2.69.711Zm-40.962-.059-.126-.447c.888-.249,1.794-.486,2.692-.7l.109.451C212.063,61.288,211.163,61.523,210.281,61.771Zm35.591-1.254c-.9-.185-1.813-.355-2.718-.507l.077-.458c.911.152,1.831.324,2.735.51Zm-30.216-.044-.092-.455c.906-.183,1.827-.352,2.737-.5l.075.458c-.9.149-1.82.316-2.72.5Zm24.762-.869c-.912-.118-1.836-.221-2.748-.305l.043-.462c.918.085,1.848.188,2.765.307Zm-19.306-.028-.058-.46c.914-.116,1.845-.216,2.766-.3l.041.462c-.915.082-1.84.182-2.749.3Zm13.8-.482c-.914-.051-1.844-.086-2.763-.1l.009-.464c.925.018,1.86.053,2.78.1Zm-8.293-.012-.024-.463c.921-.049,1.857-.081,2.781-.1l.008.464C228.465,59,227.535,59.034,226.619,59.083Z" transform="translate(-141.796 -58.523)" fill="#1b516a"/>
      <path id="Trazado_226" data-name="Trazado 226" d="M788.37,312.838q-.143-.68-.3-1.355l.452-.1q.156.68.3,1.364Z" transform="translate(-625.938 -252.713)" fill="#1b516a"/>
      <path id="Trazado_227" data-name="Trazado 227" d="M790.544,443.257l-.455-.09q.134-.68.257-1.364l.457.081Q790.679,442.573,790.544,443.257Z" transform="translate(-627.486 -352.877)" fill="#1b516a"/>
      <path id="Trazado_228" data-name="Trazado 228" d="M228.412,516.8q-.757,0-1.509-.015l.009-.464c.917.018,1.841.019,2.759,0l.007.464Q229.046,516.8,228.412,516.8Zm4.041-.106-.024-.464c.918-.048,1.843-.114,2.752-.2l.041.462C234.307,516.579,233.376,516.646,232.452,516.694Zm-8.323-.013c-.921-.052-1.852-.12-2.768-.2l.043-.462c.91.084,1.836.153,2.751.2Zm13.851-.48-.058-.46c.913-.116,1.832-.249,2.73-.4l.075.458c-.9.148-1.828.282-2.747.4ZM218.6,516.17c-.917-.119-1.841-.256-2.746-.407l.077-.458c.9.15,1.818.286,2.729.4Zm24.855-.866-.092-.455c.9-.182,1.807-.382,2.693-.6l.109.451c-.892.215-1.8.416-2.71.6Zm-30.33-.049c-.905-.186-1.816-.39-2.708-.608l.11-.451c.886.216,1.792.42,2.691.6Zm35.726-1.25-.125-.447c.88-.247,1.769-.513,2.642-.793l.142.442c-.878.282-1.773.55-2.658.8Zm-41.118-.066c-.887-.252-1.783-.524-2.663-.809l.143-.441c.875.283,1.765.554,2.647.8Zm46.4-1.625-.158-.436c.857-.31,1.722-.641,2.57-.984l.174.43c-.853.345-1.723.678-2.586.99Zm-51.691-.09c-.867-.317-1.74-.655-2.594-1l.175-.43c.849.347,1.716.682,2.578,1Zm56.825-1.983-.189-.424c.835-.374,1.674-.767,2.493-1.171l.2.417c-.824.405-1.667.8-2.508,1.178Zm-61.975-.118c-.841-.38-1.686-.781-2.512-1.192l.207-.416c.821.408,1.661.807,2.5,1.184Zm66.946-2.33-.22-.408c.807-.435,1.614-.889,2.4-1.351l.235.4c-.791.465-1.6.922-2.415,1.359Zm-71.924-.145c-.811-.441-1.624-.9-2.416-1.373l.237-.4c.788.467,1.6.926,2.4,1.364Zm76.7-2.662-.249-.391c.768-.49,1.541-1,2.3-1.524l.264.382c-.76.525-1.537,1.04-2.31,1.533Zm-81.485-.172c-.775-.5-1.551-1.019-2.308-1.546l.265-.381c.752.524,1.524,1.041,2.294,1.536Zm86.049-2.979-.277-.372c.732-.546,1.466-1.114,2.18-1.688l.291.362c-.718.578-1.456,1.149-2.193,1.7Zm-90.606-.2c-.735-.553-1.471-1.128-2.188-1.71l.292-.36c.713.578,1.444,1.15,2.175,1.7Zm94.929-3.281-.3-.351c.691-.6,1.382-1.219,2.051-1.843l.316.339c-.673.628-1.368,1.252-2.064,1.855Zm-99.241-.218c-.695-.607-1.387-1.234-2.057-1.864l.318-.338c.666.626,1.354,1.25,2.044,1.853Zm103.3-3.565-.328-.328c.648-.65,1.292-1.319,1.912-1.988l.34.315C283.266,493.247,282.619,493.92,281.967,494.574Zm-107.345-.237c-.647-.654-1.291-1.33-1.915-2.009l.342-.314c.62.675,1.261,1.346,1.9,2ZM285.741,490.5l-.352-.3c.6-.7,1.192-1.409,1.763-2.124l.363.29c-.575.718-1.172,1.437-1.774,2.136Zm-114.874-.252c-.6-.7-1.19-1.421-1.763-2.143l.364-.288c.569.717,1.158,1.434,1.752,2.129Zm118.343-4.084-.373-.276c.548-.739,1.087-1.495,1.6-2.247l.382.262C290.3,484.662,289.76,485.423,289.209,486.167ZM167.421,485.9c-.545-.742-1.084-1.5-1.6-2.264l.384-.261c.514.756,1.049,1.513,1.591,2.251Zm124.931-4.317-.392-.248c.49-.772.972-1.566,1.435-2.359l.4.234c-.465.8-.951,1.6-1.444,2.374ZM164.3,481.318c-.489-.779-.97-1.578-1.43-2.374l.4-.232c.457.792.936,1.586,1.422,2.36Zm130.848-4.532-.409-.219c.434-.811.857-1.639,1.258-2.46l.417.2C296.013,475.137,295.587,475.97,295.151,476.786Zm-133.621-.268c-.431-.813-.852-1.645-1.252-2.472l.418-.2c.4.822.816,1.649,1.244,2.457Zm136.06-4.727-.424-.188c.371-.837.732-1.694,1.073-2.547l.431.172C298.327,470.087,297.963,470.949,297.59,471.791Zm-138.472-.261c-.37-.843-.729-1.7-1.066-2.556l.432-.171c.335.848.692,1.7,1.059,2.54Zm140.536-4.9-.437-.156c.309-.865.606-1.747.883-2.621l.442.14c-.278.879-.577,1.766-.888,2.637Zm-142.573-.246c-.307-.868-.6-1.755-.877-2.634l.443-.138c.273.874.566,1.754.871,2.618Zm144.251-5.06-.447-.124c.243-.88.473-1.779.684-2.672l.452.107C301.808,459.531,301.576,460.436,301.332,461.321Zm-145.906-.238c-.242-.887-.47-1.792-.679-2.688l.452-.105c.208.891.434,1.79.675,2.671Z" transform="translate(-139.551 -365.539)" fill="#1b516a"/>
      <path id="Trazado_229" data-name="Trazado 229" d="M151.37,442.02q-.133-.684-.253-1.373l.457-.08q.119.684.251,1.365Z" transform="translate(-136.763 -351.928)" fill="#1b516a"/>
      <path id="Trazado_230" data-name="Trazado 230" d="M634.087,444.129l-.431-.171c.168-.426.332-.862.486-1.3l.437.156C634.423,443.258,634.257,443.7,634.087,444.129Z" transform="translate(-507.347 -353.538)" fill="#1b516a"/>
      <path id="Trazado_231" data-name="Trazado 231" d="M349.8,480.948c-.556,0-1.117-.011-1.667-.034l.019-.464c.913.037,1.847.043,2.763.018l.013.464Q350.364,480.948,349.8,480.948Zm3.916-.186-.044-.462c.914-.087,1.835-.207,2.739-.356l.076.458c-.915.151-1.847.273-2.771.36Zm-8.37-.055c-.923-.1-1.854-.234-2.766-.4l.082-.457c.9.161,1.822.294,2.734.393Zm13.88-.856-.107-.451c.893-.212,1.79-.457,2.664-.73l.138.443c-.885.275-1.791.524-2.695.738Zm-19.378-.128c-.9-.226-1.8-.487-2.686-.774l.144-.441c.871.284,1.764.542,2.655.766Zm24.711-1.533-.168-.432c.854-.332,1.708-.7,2.538-1.09l.2.42c-.84.4-1.7.767-2.568,1.1Zm-30.023-.2c-.861-.348-1.72-.731-2.553-1.137l.2-.417c.824.4,1.673.78,2.524,1.124Zm35.076-2.18-.226-.405c.8-.448,1.6-.928,2.365-1.429l.253.389C371.228,474.872,370.423,475.358,369.612,475.811Zm-40.1-.268c-.8-.463-1.6-.96-2.373-1.477l.259-.385c.762.511,1.551,1,2.346,1.46Zm44.779-2.782-.28-.37c.733-.553,1.456-1.138,2.148-1.738l.3.351C375.765,471.61,375.033,472.2,374.292,472.761Zm-49.418-.331c-.735-.569-1.458-1.171-2.149-1.787l.309-.346c.683.609,1.4,1.2,2.125,1.767Zm53.638-3.329-.327-.329c.651-.647,1.287-1.325,1.891-2.014l.349.306c-.611.7-1.255,1.382-1.913,2.037Zm-57.809-.387c-.649-.663-1.283-1.356-1.886-2.062l.353-.3c.6.7,1.223,1.384,1.864,2.039Zm61.492-3.814-.369-.281c.556-.729,1.094-1.487,1.6-2.253l.387.256C383.3,463.4,382.757,464.164,382.195,464.9Zm-65.118-.435c-.553-.746-1.087-1.52-1.587-2.3l.391-.25c.494.771,1.022,1.537,1.569,2.274Zm68.194-4.228-.4-.228c.451-.8.88-1.623,1.276-2.451l.419.2c-.4.837-.834,1.671-1.291,2.479Zm-71.207-.475c-.446-.815-.869-1.654-1.257-2.5l.421-.194c.384.832.8,1.661,1.243,2.467Z" transform="translate(-260.938 -364.605)" fill="#1b516a"/>
      <path id="Trazado_232" data-name="Trazado 232" d="M306.546,441.883c-.164-.433-.324-.876-.474-1.317l.439-.15c.149.437.306.875.469,1.3Z" transform="translate(-255.766 -351.813)" fill="#1b516a"/>
      <path id="Trazado_233" data-name="Trazado 233" d="M309.78,314.96l-.43-.173c.174-.432.357-.866.544-1.29l.424.188C310.133,314.1,309.952,314.532,309.78,314.96Z" transform="translate(-258.284 -254.34)" fill="#1b516a"/>
      <path id="Trazado_234" data-name="Trazado 234" d="M317.423,230.943l-.41-.217c.438-.829.912-1.653,1.407-2.45l.394.245C318.325,229.308,317.857,230.123,317.423,230.943Zm70.847-.676c-.448-.81-.932-1.616-1.437-2.4l.389-.252c.511.788,1,1.6,1.453,2.423Zm-67.9-4.066-.376-.272c.549-.761,1.132-1.512,1.732-2.232l.357.3C321.489,224.706,320.913,225.448,320.37,226.2Zm64.864-.619c-.557-.741-1.147-1.472-1.754-2.174l.351-.3c.614.71,1.211,1.449,1.774,2.2Zm-61.291-3.672-.335-.321c.648-.678,1.329-1.341,2.023-1.973l.312.343C325.257,220.584,324.584,221.24,323.943,221.91Zm57.638-.55c-.654-.658-1.339-1.3-2.037-1.912l.306-.349c.705.618,1.4,1.269,2.06,1.934Zm-53.509-3.208-.288-.364c.736-.582,1.5-1.146,2.275-1.676l.262.383C329.557,217.018,328.8,217.576,328.072,218.152Zm49.309-.471c-.738-.561-1.5-1.1-2.28-1.613l.255-.388c.784.515,1.56,1.064,2.307,1.632ZM332.679,215l-.235-.4c.809-.475,1.645-.927,2.484-1.345l.207.416C334.305,214.082,333.479,214.529,332.679,215Zm40.035-.383c-.81-.455-1.645-.886-2.481-1.282l.2-.419c.847.4,1.691.837,2.51,1.3Zm-35.036-2.1-.177-.429c.867-.358,1.758-.69,2.647-.986l.147.44c-.879.293-1.76.621-2.617.975Zm29.99-.287c-.865-.338-1.751-.649-2.635-.925l.138-.443c.894.279,1.791.594,2.666.935Zm-24.694-1.478-.116-.449c.908-.233,1.836-.438,2.759-.608l.084.456c-.912.168-1.83.37-2.727.6Zm19.365-.185c-.9-.214-1.823-.4-2.739-.548l.075-.458c.926.152,1.858.339,2.77.555Zm-13.875-.826-.052-.461c.929-.1,1.877-.179,2.817-.22l.02.464c-.929.041-1.866.114-2.784.218Zm8.366-.079c-.921-.086-1.859-.142-2.788-.165l.011-.464c.94.023,1.888.079,2.82.166Z" transform="translate(-264.17 -174.112)" fill="#1b516a"/>
      <path id="Trazado_235" data-name="Trazado 235" d="M630.194,311.966c-.18-.424-.369-.849-.562-1.265l.42-.2c.2.42.387.851.569,1.279Z" transform="translate(-504.257 -252.042)" fill="#1b516a"/>
      <path id="Trazado_236" data-name="Trazado 236" d="M649.122,384.24a2.632,2.632,0,1,0,1.851.771A2.594,2.594,0,0,0,649.122,384.24Z" transform="translate(-517.195 -308.67)" fill="#1b516a"/>
      <path id="Trazado_237" data-name="Trazado 237" d="M603.881,384.24a2.632,2.632,0,1,0,1.851.771A2.633,2.633,0,0,0,603.881,384.24Z" transform="translate(-482.45 -308.67)" fill="#1b516a"/>
      <path id="Trazado_238" data-name="Trazado 238" d="M591.475,321.477A13.225,13.225,0,1,0,604.7,334.7,13.225,13.225,0,0,0,591.475,321.477Zm2.57,5.515a1.265,1.265,0,0,1,1.277,1.277,1.285,1.285,0,1,1-1.277-1.277Zm-7.818,15.42a3.749,3.749,0,1,1,3.747-3.747,3.749,3.749,0,0,1-3.747,3.747Zm5.891-7.469v3.614a.642.642,0,0,1-1.285,0V335.91c0-.526-.643-.643-2.47-1.695a1.2,1.2,0,0,1-.743-1.088,1.307,1.307,0,0,1,.374-.9l2.879-2.775a1.256,1.256,0,0,1,1.988.265l1.185,2.413h1.927a.642.642,0,1,1,0,1.285h-2.3c-.43,0-.775-.924-1.526-2.068l-1.964,2.068c.719.562,1.939,1,1.939,1.526Zm4.606,7.465a3.747,3.747,0,1,1,3.747-3.747,3.746,3.746,0,0,1-3.747,3.747Z" transform="translate(-464.796 -260.469)" fill="#1b516a"/>
      <path id="Trazado_239" data-name="Trazado 239" d="M753.475,321.477A13.225,13.225,0,1,0,766.7,334.7,13.225,13.225,0,0,0,753.475,321.477Zm-3.506,9.454a2.057,2.057,0,1,1-2.1,2.056,2.078,2.078,0,0,1,2.1-2.056Zm11.216,8.911h-1.4v-2.056H747.166v2.056h-1.4v-10.28h1.4v6.168h5.606v-4.8h5.61a2.773,2.773,0,0,1,2.8,2.743Z" transform="translate(-589.21 -260.469)" fill="#1b516a"/>
      <path id="Trazado_240" data-name="Trazado 240" d="M152.769,363.246h-3.935a.161.161,0,0,0-.161.161v5.622a.161.161,0,0,0,.161.161h3.935a.644.644,0,0,0,.642-.642v-4.658A.644.644,0,0,0,152.769,363.246Z" transform="translate(-134.886 -292.547)" fill="#1b516a"/>
      <path id="Trazado_241" data-name="Trazado 241" d="M159.584,394.044a.967.967,0,1,0,.76.28A.965.965,0,0,0,159.584,394.044Z" transform="translate(-142.585 -316.197)" fill="#1b516a"/>
      <path id="Trazado_242" data-name="Trazado 242" d="M126.371,394.044a.967.967,0,1,0,.76.28A.965.965,0,0,0,126.371,394.044Z" transform="translate(-117.078 -316.197)" fill="#1b516a"/>
      <path id="Trazado_243" data-name="Trazado 243" d="M127.982,363.246h-3.927a.653.653,0,0,0-.651.651v4.642a.653.653,0,0,0,.651.651h3.927a.161.161,0,0,0,.161-.161v-5.622a.161.161,0,0,0-.161-.161Z" transform="translate(-115.48 -292.547)" fill="#1b516a"/>
      <path id="Trazado_244" data-name="Trazado 244" d="M102.475,321.477A13.225,13.225,0,1,0,115.7,334.7,13.225,13.225,0,0,0,102.475,321.477Zm6.425,18.606a1.611,1.611,0,0,1-1.606,1.606H97.656a1.611,1.611,0,0,1-1.606-1.606V329a1.289,1.289,0,0,1,1.285-1.285h10.28A1.289,1.289,0,0,1,108.9,329Z" transform="translate(-89.25 -260.469)" fill="#1b516a"/>
      <path id="Trazado_245" data-name="Trazado 245" d="M133.4,353.2h-9.4a.564.564,0,1,0,0,1.124h9.4a.564.564,0,1,0,0-1.124Z" transform="translate(-115.48 -284.833)" fill="#1b516a"/>
      <path id="Trazado_246" data-name="Trazado 246" d="M315.27,380.035c-.265,0-.482.394-.482.883s.217.883.482.883.482-.394.482-.883S315.535,380.035,315.27,380.035Z" transform="translate(-262.461 -305.44)" fill="#1a88a4"/>
      <path id="Trazado_247" data-name="Trazado 247" d="M300.04,380.035c-.265,0-.482.394-.482.883s.217.883.482.883.482-.394.482-.883S300.3,380.035,300.04,380.035Z" transform="translate(-250.764 -305.44)" fill="#1a88a4"/>
      <path id="Trazado_248" data-name="Trazado 248" d="M265.475,321.477A13.225,13.225,0,1,0,278.7,334.7,13.225,13.225,0,0,0,265.475,321.477Zm-6.184,12.775.731-3.887c.189-1.056.679-1.887,1.6-1.887H263l.08-.317a1.284,1.284,0,0,1,1.245-.968h2.289a1.285,1.285,0,0,1,1.245.964l.08.321h1.389c.9,0,1.377.815,1.6,1.883v0l.735,3.891a.16.16,0,0,1-.225.177l-1.02-.47a.153.153,0,0,1-.092-.116l-.651-3.437c-.12-.442-.289-.643-.646-.643h-7.112c-.353,0-.546.213-.646.643l-.651,3.437a.162.162,0,0,1-.092.116l-1.016.466a.161.161,0,0,1-.225-.177Zm14.163,2.5-2.2,5.457a4.571,4.571,0,0,1-2.277-.883,9.616,9.616,0,0,1-3.184.747c-.112,0-.221.008-.321.008s-.209,0-.321-.008a9.716,9.716,0,0,1-3.184-.747,4.571,4.571,0,0,1-2.277.883l-2.2-5.457a.747.747,0,0,1-.052-.269.726.726,0,0,1,.422-.659l7.473-3.433a.316.316,0,0,1,.269,0l7.477,3.433a.725.725,0,0,1,.422.659.746.746,0,0,1-.052.269Z" transform="translate(-214.432 -260.469)" fill="#1b516a"/>
      <path id="Trazado_249" data-name="Trazado 249" d="M428.475,321.477A13.225,13.225,0,1,0,441.7,334.7,13.225,13.225,0,0,0,428.475,321.477Zm6.092,14.514c-.137,0-.59,0-.723-.012l-2.606-.068a.079.079,0,0,0-.068.036l-3.911,5.847a.64.64,0,0,1-.542.3h-.952c-.225,0-.3-.225-.221-.434l2.012-5.738a.08.08,0,0,0-.072-.108L422.6,335.7a.329.329,0,0,0-.265.125l-1.514,1.835a.649.649,0,0,1-.506.245h-.671a.16.16,0,0,1-.153-.213l.8-2.759a.655.655,0,0,0,0-.478l-.8-2.759a.16.16,0,0,1,.153-.213h.675a.637.637,0,0,1,.506.245l1.486,1.807a.323.323,0,0,0,.265.124l4.915-.072a.079.079,0,0,0,.072-.108l-2.012-5.734c-.08-.209,0-.434.221-.434h.952a.645.645,0,0,1,.542.3l3.907,5.851a.074.074,0,0,0,.068.036l2.606-.068c.129-.008.586-.012.723-.012,1.783,0,2.9.578,2.9,1.289s-1.124,1.285-2.9,1.285Z" transform="translate(-339.614 -260.469)" fill="#1b516a"/>
      <path id="Trazado_250" data-name="Trazado 250" d="M145.706,552.181a2.784,2.784,0,1,1,2.784-2.784A2.784,2.784,0,0,1,145.706,552.181Zm0-5.1a2.32,2.32,0,1,0,2.32,2.32A2.32,2.32,0,0,0,145.706,547.077Z" transform="translate(-130.469 -433.37)" fill="#f0f0f0"/>
      <path id="Trazado_251" data-name="Trazado 251" d="M398.706,283.181a2.784,2.784,0,1,1,2.784-2.784A2.784,2.784,0,0,1,398.706,283.181Zm0-5.1a2.32,2.32,0,1,0,2.32,2.32A2.32,2.32,0,0,0,398.706,278.077Z" transform="translate(-324.771 -226.782)" fill="#f0f0f0"/>
      <path id="Trazado_252" data-name="Trazado 252" d="M621.053,609.555l-3.124-3.349,3.349-3.124,3.124,3.349Zm-2.626-3.332,2.643,2.834,2.834-2.643-2.643-2.834Z" transform="translate(-495.269 -476.737)" fill="#f0f0f0"/>
    </g>
    <g id="Grupo_94" data-name="Grupo 94" transform="translate(7.5 6.324)">
      <circle id="Elipse_87" data-name="Elipse 87" cx="8.761" cy="8.761" r="8.761" transform="translate(40.427 12.758)" fill="#2f2e41"/>
      <path id="Trazado_253" data-name="Trazado 253" d="M235.615,533.168,241,514.5l1.832.573s-2.176,13.973-5.612,17.523Z" transform="translate(-213.111 -406.168)" fill="#3b3b3b"/>
      <path id="Trazado_254" data-name="Trazado 254" d="M304.5,223.119s.687,7.33-.916,9.391,1.031,6.07,1.031,6.07l4.81,5.726,7.1-3.207,1.031-5.956-.687-4.123a7.308,7.308,0,0,1-1.374-6.757C316.53,219.912,304.5,223.119,304.5,223.119Z" transform="translate(-261.5 -196.331)" fill="#ffb9b9"/>
      <path id="Trazado_255" data-name="Trazado 255" d="M304.5,223.119s.687,7.33-.916,9.391,1.031,6.07,1.031,6.07l4.81,5.726,7.1-3.207,1.031-5.956-.687-4.123a7.308,7.308,0,0,1-1.374-6.757C316.53,219.912,304.5,223.119,304.5,223.119Z" transform="translate(-261.5 -196.331)" opacity="0.1"/>
      <path id="Trazado_256" data-name="Trazado 256" d="M166.73,575.128v4.7l6.3,1.26-.573-7.788Z" transform="translate(-119.602 -411.249)" fill="#ffb9b9"/>
      <path id="Trazado_257" data-name="Trazado 257" d="M230.1,571.55l-1.375,6.528,2.749,1.947,4.81-3.55-.573-5.612Z" transform="translate(-164.073 -409.504)" fill="#ffb9b9"/>
      <path id="Trazado_258" data-name="Trazado 258" d="M319.111,724.077a4.856,4.856,0,0,0-6.872-1.517s-.8,4.495-1.6,4.839-5.268,6.872,0,7.444,7.9-1.145,7.9-1.145-1.031.887.573.429.916-2.978.916-2.978Z" transform="translate(-265.112 -554.816)" fill="#3b3b3b"/>
      <path id="Trazado_259" data-name="Trazado 259" d="M383.648,718.138s-3.55,2.52-4.123,1.374a1.565,1.565,0,0,0-1.489-1.031s-3.207,12.089-1.145,12.661a6.948,6.948,0,0,0,4.009-.207s2.749-1.925,2.749-.436,7.673,1.382,10.88,1.267,1.489-2.52,1.489-2.52l-4.238-4.123-4.81-6.986S384.793,716.191,383.648,718.138Z" transform="translate(-313.959 -551.625)" fill="#3b3b3b"/>
      <path id="Trazado_260" data-name="Trazado 260" d="M283.022,445.572l4.81,46.155s2.634,28.174,3.092,28.632,3.436,1.947,9.964,0L299.4,483.481l2.749-22.906,6.3,15.8s1.489,42.49,2.52,42.49,7.33,2.061,8.819-.458,1.26-29.663,1.26-29.663-.687-42.834-5.726-44.208S283.022,445.572,283.022,445.572Z" transform="translate(-247.118 -355.679)" fill="#3b3b3b"/>
      <circle id="Elipse_88" data-name="Elipse 88" cx="7.902" cy="7.902" r="7.902" transform="translate(41.286 15.22)" fill="#ffb9b9"/>
      <path id="Trazado_261" data-name="Trazado 261" d="M278.147,262.237s-.8-4.925-.8-5.841-3.55-1.489-3.55-1.489-2.749-3.092-3.321-2.634-9.277,6.3-10.651,7.1-2.863,4.238-2.749,4.467,7.215,15.118,7.215,15.118,3.092,9.162.916,13.973-4.925,14.316-.916,16.263,23.478,6.185,27.029,2.52,6.07-4.7,6.986-4.7-3.779-15.919-2.749-17.408-.458-10.766-.458-10.766l5.268-14.774s-.458-8.246-10.88-10.079l-6.235-3.023Z" transform="translate(-228.5 -217.125)" fill="#1a88a4"/>
      <path id="Trazado_262" data-name="Trazado 262" d="M252.088,455.976s-.573,5.5-.573,7.1-2.749,10.995,1.26,12.14,3.665-12.484,3.665-12.484v-6.986Z" transform="translate(-223.858 -364.022)" fill="#ffb9b9"/>
      <path id="Trazado_263" data-name="Trazado 263" d="M411.161,438.324s.687,5.268.344,6.414,3.321,11.109-1.6,11.682-3.665-11.911-3.665-11.911v-6.185Z" transform="translate(-335.402 -351.524)" fill="#ffb9b9"/>
      <path id="Trazado_264" data-name="Trazado 264" d="M252.227,529.3l3.321-17.637h1.031a6.937,6.937,0,0,1,1.031,6.643,83.657,83.657,0,0,0-2.52,10.995Z" transform="translate(-225.028 -404.133)" fill="#3b3b3b"/>
      <path id="Trazado_265" data-name="Trazado 265" d="M252.611,291.647l-1.718,1.374s-2.291,36.42-1.718,39.169-2.062,6.643.229,6.986,5.039,1.832,6.3.916,1.489-4.238,1.947-5.039,1.26-10.308,1.26-10.308,2.405-9.506.916-16.607-2.863-14.316-2.863-14.316Z" transform="translate(-222.319 -246.306)" fill="#1a88a4"/>
      <path id="Trazado_266" data-name="Trazado 266" d="M386.38,281.517l5.268,4.467,4.009,23.364s2.52,18.21.573,18.439-4.925-.344-6.185,0a2.682,2.682,0,0,1-2.291-.573s-1.374-7.33-1.374-7.444-.916-8.475-.916-8.475l-1.145-9.391,1.718-10.308Z" transform="translate(-319.782 -239.039)" fill="#1a88a4"/>
      <path id="Trazado_267" data-name="Trazado 267" d="M212.118,596s-.744,2.138-1.771,5.049c-.476,1.354-1.014,2.876-1.567,4.428-.356,1-.718,2.019-1.074,3.011-.568,1.586-1.12,3.109-1.6,4.417-.637,1.726-1.153,3.079-1.43,3.71-1.26,2.863-24.28-1.718-26.113-2.863s-2.291-5.039-2.52-10.537c0-.029,0-.057,0-.086a20.036,20.036,0,0,1,.726-4.7c.236-.969.52-2.009.836-3.089.424-1.449.9-2.967,1.408-4.479,2.16-6.494,4.706-12.841,4.706-12.841s4.467-3.092,6.07-5.154,10.422-3.665,10.422-3.665c2.52.115,8.246,9.85,10.537,12.827S212.118,596,212.118,596Z" transform="translate(-170.373 -445.406)" fill="#e4bbab"/>
      <circle id="Elipse_89" data-name="Elipse 89" cx="1.031" cy="1.031" r="1.031" transform="translate(27.887 131.123)" fill="#2f2e41"/>
      <circle id="Elipse_90" data-name="Elipse 90" cx="0.573" cy="0.573" r="0.573" transform="translate(29.948 132.727)" fill="#2f2e41"/>
      <path id="Trazado_268" data-name="Trazado 268" d="M214.317,656.018c-.476,1.354-1.014,2.876-1.567,4.428l-31.179-10.138c.424-1.449.9-2.967,1.408-4.479Z" transform="translate(-174.343 -500.375)" fill="#f2f2f2"/>
      <path id="Trazado_269" data-name="Trazado 269" d="M207.706,682.663c-.568,1.586-1.12,3.109-1.6,4.417L176.039,677.3a20.035,20.035,0,0,1,.726-4.7Z" transform="translate(-170.373 -519.582)" fill="#f2f2f2"/>
      <path id="Trazado_270" data-name="Trazado 270" d="M258.3,599.588s2.291,10.079.916,19.012,3.436,17.294,3.436,17.294" transform="translate(-229.388 -467.205)" fill="none" stroke="#2f2e41" stroke-miterlimit="10" stroke-width="3"/>
      <path id="Trazado_271" data-name="Trazado 271" d="M241.6,602.425s-4.467,16.263-4.581,18.554-1.947,18.668-4.238,20.386" transform="translate(-211.077 -469.24)" fill="none" stroke="#2f2e41" stroke-miterlimit="10" stroke-width="3"/>
      <path id="Trazado_272" data-name="Trazado 272" d="M307.033,177.486s-1.789-4.651.8-6.171l.716,2.057s6.529-3.935,8.228-3.041l-1.61,2.147s7.6,0,8.139,2.952l-2.683.089s2.862,1.878,2.952,4.919l-5.724.358,2.773,1.61s-10.375,1.431-12.879-2.683Z" transform="translate(-263.911 -159.186)" fill="#2f2e41"/>
      <path id="Trazado_273" data-name="Trazado 273" d="M303.078,189.946s2.062,4.123,4.81,3.092,0-4.81,0-4.81l-1.832-.916Z" transform="translate(-261.505 -171.462)" fill="#2f2e41"/>
      <path id="Trazado_274" data-name="Trazado 274" d="M578.074,214.766l-37.382-46.713a12.551,12.551,0,0,1-6.045,3.053A13.25,13.25,0,0,1,519.3,160.372a13.558,13.558,0,0,1,4.68-13.207l-12.746-15.928L438.615,193.3l66.843,83.529Z" transform="translate(-358.732 -131.237)" fill="#e4bbab" opacity="0.5"/>
      <circle id="Elipse_91" data-name="Elipse 91" cx="10.538" cy="10.538" r="10.538" transform="translate(162.356 16.573)" fill="#e4bbab" opacity="0.5"/>
      <rect id="Rectángulo_250" data-name="Rectángulo 250" width="4.932" height="14.357" transform="translate(103.729 77.8) rotate(-49.171)" fill="#ea8c8c"/>
      <rect id="Rectángulo_251-2" data-name="Rectángulo 251" width="4.932" height="12.726" transform="translate(173.563 144.535) rotate(-49.171)" fill="#ea8c8c"/>
      <path id="Trazado_275" data-name="Trazado 275" d="M597.682,408.386v.289q-.01,1.09-.062,2.17a48.332,48.332,0,0,1-96.5.631q-.1-1.534-.1-3.091a48.093,48.093,0,0,1,8.887-27.937q.7-.986,1.447-1.937c.345-.441.7-.871,1.059-1.3a48.341,48.341,0,0,1,67.355-6.392c.582.47,1.154.957,1.713,1.453q.671.6,1.318,1.22a48.2,48.2,0,0,1,14.717,30.827Q597.682,406.334,597.682,408.386Z" transform="translate(-403.497 -295.376)" fill="#1b516a"/>
      <path id="Trazado_276" data-name="Trazado 276" d="M533.914,491.551a54.415,54.415,0,0,1-39.9-91.419l1.205,1.118A52.771,52.771,0,0,0,571.8,473.873l1.18,1.144A53.984,53.984,0,0,1,533.914,491.551Z" transform="translate(-388.06 -324.127)" fill="#ea8c8c"/>
      <rect id="Rectángulo_252-2" data-name="Rectángulo 252" width="13.809" height="13.809" transform="translate(139.936 166.273)" fill="#ea8c8c"/>
      <path id="Trazado_277" data-name="Trazado 277" d="M511.353,422.063a.268.268,0,0,1,.066.039c.26.214-.066.625-.026.963.046.434.625.529,1.062.572s.99.4.782.786a4.846,4.846,0,0,1-3.331-.424,48.092,48.092,0,0,0-8.887,27.937q0,1.559.1,3.091a1.249,1.249,0,0,0,.3.161,6.387,6.387,0,0,1,1.013.279c.24.141.4.391.641.523.687.375,1.641-.345,2.282.1a5.88,5.88,0,0,1,.47.48c.592.513,1.565.168,2.249.552a2.668,2.668,0,0,1,.9,1.187,3.819,3.819,0,0,0,2.8,2.3,7.553,7.553,0,0,1,1.19.039c.388.089.769.427.707.819-.109.674.224,1.41.135,2.085-.161,1.233-1.907,1.772-2.055,3.005a7.421,7.421,0,0,1-.046.812c-.079.322-.322.585-.408.908a1.724,1.724,0,0,0,.75,1.624,4.433,4.433,0,0,1,1.315,1.338,6.9,6.9,0,0,1,.23,1.976,4.73,4.73,0,0,0,2.726,3.2,2.847,2.847,0,0,1,1.065.776,4.3,4.3,0,0,1,.408,1.673c.27,1.391,1.44,2.538,1.473,3.955a8.412,8.412,0,0,1-.871,2.874,6.63,6.63,0,0,0-.3,3.1,48.562,48.562,0,0,0,5.961,4.324,1.737,1.737,0,0,0,.247-.552,1.092,1.092,0,0,0-.51-1.131,2.7,2.7,0,0,0,.944-.6.926.926,0,0,0,.171-1.046,1.828,1.828,0,0,0,1.647-.335,1.471,1.471,0,0,0,.164-1.338,5.519,5.519,0,0,1-.329-1.361,24.5,24.5,0,0,0,4.018-.135,2.609,2.609,0,0,0-1.223-1.532,2.118,2.118,0,0,0,1.345-1.407,3.584,3.584,0,0,0,.026-1.818.967.967,0,0,1-.02-.473.931.931,0,0,1,.48-.464q1.5-.863,3-1.723a1.805,1.805,0,0,0,.48-.352,1.431,1.431,0,0,0,.105-1.384,6.976,6.976,0,0,1-.48-1.368c-.184-1.437,1.355-2.469,1.874-3.824a5.745,5.745,0,0,0,.283-1.674,1.988,1.988,0,0,0-.421-1.71c-.45-.378-1.151-.293-1.621-.644-.431-.322-.579-.944-1.049-1.2-.427-.237-.96-.085-1.437-.2-.835-.194-1.361-1.157-2.216-1.246-.48-.053-1.026.184-1.42-.1-.349-.25-.362-.746-.427-1.167a3.261,3.261,0,0,0-2.63-2.637,3.671,3.671,0,0,1-1.46-.322c-.427-.276-.621-.792-.96-1.177a4.018,4.018,0,0,0-2.193-1.023q-1.627-.38-3.252-.763c-.575-.138-1.318-.21-1.631.3a2.224,2.224,0,0,0-.191.608,1.886,1.886,0,0,1-1.769,1.328,2.09,2.09,0,0,0-1.23-.953,7.75,7.75,0,0,1-1-.237,1.4,1.4,0,0,1-.6-1.943,1.745,1.745,0,0,0-.3-2.094,2.83,2.83,0,0,0-2.094-.569c-.194-.424.131-.9.48-1.21s.776-.608.852-1.069c.122-.723-.8-1.272-1.5-1.059a2.616,2.616,0,0,0-1.443,1.568,4.73,4.73,0,0,1-.582,1.115,1.143,1.143,0,0,1-1.1.454c-.579-.148-.8-.835-.927-1.414a9.217,9.217,0,0,1-.309-2.371,3.1,3.1,0,0,1,.894-2.157c.957-.881,2.43-.8,3.722-.654a.948.948,0,0,1,.1-1.249,1.421,1.421,0,0,1,1.289-.316,1.768,1.768,0,0,1,1,.6,9.225,9.225,0,0,1,.75,1.562c.279.51.9.944,1.414.671a1.193,1.193,0,0,0,.4-1.338,4.97,4.97,0,0,1-.306-1.463c.076-.95,1.065-1.526,1.937-1.917s1.867-.921,2.006-1.868a1.745,1.745,0,0,1,.105-.539,1.055,1.055,0,0,1,.391-.368,32.936,32.936,0,0,1,8.036-4.3c.151-.049.168,0,.322-.033.217-.125.072-.47-.135-.608s-.483-.247-.536-.49c-.036-.178.069-.355.1-.536a.669.669,0,0,0-.878-.677c-.233-.309.227-.667.6-.773a16.436,16.436,0,0,1,3.436-.559.612.612,0,0,1,.391.066.465.465,0,0,1,.03.638,3.6,3.6,0,0,1-.523.477A1.436,1.436,0,0,0,528,436.48a3.276,3.276,0,0,0,1.94.519c.671-.108,1.266-.865.95-1.466-.293-.562-1.177-.69-1.328-1.305-.178-.72.842-1.361.611-2.065-.1-.309-.408-.493-.644-.714a1.945,1.945,0,0,1-.424-2.15,2.45,2.45,0,0,1-2.144-.671c-.513-.516-.921-1.335-1.651-1.309-.667.02-1.243.8-1.867.562-.155-.059-.316-.178-.464-.108a.384.384,0,0,0-.174.286c-.158.76.115,1.624-.3,2.282-.45.714-1.493.812-2.038,1.457-.3.349-.411.819-.684,1.187s-.848.6-1.177.283a1.62,1.62,0,0,0-.441-1.973,4.238,4.238,0,0,0-.973-.473,5.777,5.777,0,0,1-1.088-.6,1.078,1.078,0,0,1-.4-.427.982.982,0,0,1,.026-.677,2.768,2.768,0,0,1,2.2-1.822c.434-.059.94-.039,1.23-.372.151-.174.23-.441.454-.51a.662.662,0,0,1,.418.049l1.624.572a1.112,1.112,0,0,0,.579.1.389.389,0,0,0,.339-.411c-.053-.27-.467-.4-.427-.671a.426.426,0,0,1,.135-.23A5.81,5.81,0,0,1,526.892,424c.2.339-.118.737-.391,1.023s-.487.8-.158,1.023a.866.866,0,0,0,.431.1,3.757,3.757,0,0,1,1.151.348c.562.243,1.115.513,1.654.8a2.085,2.085,0,0,1,.039-1.065.723.723,0,0,1,.855-.464c.322.125.487.552.832.592.457.053.638-.625.447-1.046s-.572-.769-.6-1.233c-.023-.309.1-.694-.151-.881a.654.654,0,0,0-.293-.105l-6.2-1.138c-.368-.069-.9-.016-.914.355-.01.21.178.418.1.608s-.378.187-.589.26a.8.8,0,0,0-.46.845,2.3,2.3,0,0,0,.388.95c-.4-.168-1.013-.2-1.417-.368a5.456,5.456,0,0,0-.355-1.365.482.482,0,0,0-.628-.388c-.533.082-1.065.161-1.6.243a.618.618,0,0,0-.365.141c-.207.22,0,.572-.01.875a.82.82,0,0,1-.635.707,2.392,2.392,0,0,1-1.013-.013l-2.236-.345a3.663,3.663,0,0,0,1.69-1.131c.3-.349.454-1,.026-1.164a1.021,1.021,0,0,0-.388-.03c-1.013.007-1.812-.838-2.759-1.2a2.711,2.711,0,0,0-.93-.171Z" transform="translate(-403.497 -338.927)" fill="#e4bbab"/>
      <path id="Trazado_278" data-name="Trazado 278" d="M683.548,437.4a1.187,1.187,0,0,1-1.006.477c-1.029-.089-1.463-1.572-2.482-1.739a.4.4,0,0,0-.27.026c-.151.082-.177.286-.187.457a5.67,5.67,0,0,0,.253,2.512c.483,1.144,1.736,2.1,1.473,3.318a5.166,5.166,0,0,1-2.482-3.765,26.48,26.48,0,0,0-.986-4.56c-.457.582-1.41.1-1.825-.51-.395-.579-.638-1.249-1.019-1.838a2.262,2.262,0,0,0-1.664-1.144,2.982,2.982,0,0,0-1.93.947,4.466,4.466,0,0,0-1.2,1.335,6.066,6.066,0,0,0-.309,2.594,3.96,3.96,0,0,1-.868,2.647,1.919,1.919,0,0,1-2.555.309,2.881,2.881,0,0,1-.714-1.286,62.567,62.567,0,0,1-1.933-6.9c-.118.533-.589,1.22-1.036.907a.922.922,0,0,1-.237-.309,6.906,6.906,0,0,0-3.939-2.768c-1.558-.506-3.2-.743-4.741-1.3a12.119,12.119,0,0,1-2.463-1.226,1.939,1.939,0,0,0-.118,1.979,1.586,1.586,0,0,0,1.782.746c.342-.112.631-.349.97-.467a.759.759,0,0,1,.944.27c.145.312-.072.69.036,1.019.161.5.914.536,1.177.99a.916.916,0,0,1-.247,1.059,4.432,4.432,0,0,1-.993.612,19.755,19.755,0,0,0-2.857,2.479,3.45,3.45,0,0,1-3.482.891c.273-1.391-1.381-2.41-1.687-3.794-.1-.457-.049-.94-.191-1.384a4.5,4.5,0,0,0-1.246-1.572,6.177,6.177,0,0,1-1.693-4.488,6.231,6.231,0,0,0,0-1.713,1.284,1.284,0,0,0-1.164-1.072c-1.305.059-2.953.158-3.636-.957a1.026,1.026,0,0,1,0-1.286,1.241,1.241,0,0,1,.944-.161c.983.1,1.963.194,2.946.289a3.276,3.276,0,0,0,2.022-.237c.592-.358.848-1.315.3-1.739-.4-.309-1.115-.293-1.233-.783-.1-.411.358-.875.112-1.22-.174-.243-.569-.178-.809.007a5.294,5.294,0,0,1-.681.6,2.076,2.076,0,0,1-1.535-.148c-.506-.158-1.184-.171-1.427.3-.276.523.24,1.213-.03,1.739-.362.694-1.578.3-2.084.9-.579.684.394,1.71.2,2.584a1.611,1.611,0,0,1-1.588-.089,1.538,1.538,0,0,1-.664-1.433c.046-.395.253-.8.115-1.171a1.366,1.366,0,0,0-.694-.635q-1.43-.794-2.86-1.582a1.29,1.29,0,0,0,.49,1.473,5.09,5.09,0,0,1,1.22,1.134,1.491,1.491,0,0,1-.559,1.966.347.347,0,0,1-.286.049.4.4,0,0,1-.184-.247,6.081,6.081,0,0,0-2.472-3.239,2.936,2.936,0,0,0-3.748.6c-.187.27-.316.579-.48.865a4.991,4.991,0,0,1-4.495,2.186.867.867,0,0,1-.49-.115c-.283-.194-.27-.608-.227-.95.063-.483.122-.963.184-1.447a1.158,1.158,0,0,1,.319-.792c.326-.256.792-.1,1.207-.1a1.52,1.52,0,0,0,1.384-1.069,1.718,1.718,0,0,0-.48-1.71c-.187-.178-.44-.4-.342-.641a.533.533,0,0,1,.371-.25c.74-.214,1.526-.27,2.252-.526a2.342,2.342,0,0,0,1.611-1.526c.053-.23.076-.51.283-.625a.916.916,0,0,1,.329-.066,1.6,1.6,0,0,0,1.371-1.667,1.046,1.046,0,0,1,1.177.2,3.27,3.27,0,0,0,1.046.714c.766.21,1.506-.47,2.3-.473a2.878,2.878,0,0,0,.993,0c.319-.115.51-.431.753-.664s.674-.378.9-.125c-.066-.477-.128-.95-.194-1.424a2.8,2.8,0,0,0,2.279-.414l-2.482-.838a.535.535,0,0,1-.233-.125c-.181-.194,0-.5.145-.717.352-.529.411-1.4-.168-1.664a1.412,1.412,0,0,0-1.223.247c-.6.335-1.21.674-1.815,1.009-.056.345.365.542.625.773a1.048,1.048,0,0,1-.684,1.831,1.313,1.313,0,0,1,.233,1.108l-1.22.089a.524.524,0,0,1-.395-.079c-.131-.115-.112-.319-.145-.49a1.058,1.058,0,0,0-.894-.779,3.088,3.088,0,0,0-1.246.115.759.759,0,0,1-.539-.013.538.538,0,0,1-.21-.27,1.375,1.375,0,0,1,.276-1.322,7.574,7.574,0,0,1,1.039-.957,6.057,6.057,0,0,0,1.805-2.795c.671-.283,1.364-.664,2.039-.947a8.143,8.143,0,0,1,1.693-.569,8,8,0,0,1,1.66-.079c.756.013,1.516.026,2.272.043a5.468,5.468,0,0,1,1.989.286,1.855,1.855,0,0,1,1.213,1.483.455.455,0,0,1-.148.418.533.533,0,0,1-.286.066c-.628.02-.894.178-1.522.2a2.569,2.569,0,0,0,1.424.947c1.019.132,1.752-.924,2.223-1.841a.9.9,0,0,0,.937.832,1.889,1.889,0,0,0,.707-.276,13.9,13.9,0,0,1,6.592-1.7.71.71,0,0,1,.543-.783c.47-.092.891.312,1.118.733a3.944,3.944,0,0,0,.727,1.223c.358.316,1.052.3,1.193-.155.138-.437-.319-.812-.7-1.072s-.779-.733-.523-1.115a33.808,33.808,0,0,1,5.866-.944,2.5,2.5,0,0,0,.986-.171.767.767,0,0,0,.46-.812,2.242,2.242,0,0,1-2.334-.881,20.068,20.068,0,0,1,6.122.141l1.713,1.453c-.325.339-.759.658-.523,1a.729.729,0,0,0,.6.207c.414.007.829.016,1.24.016a48.2,48.2,0,0,1,14.716,30.827,1.454,1.454,0,0,0-1.236,1.611,6.393,6.393,0,0,0,1.2,2.357,3.593,3.593,0,0,1,.2.385Z" transform="translate(-489.424 -321.932)" fill="#e4bbab"/>
      <line id="Línea_57-2" data-name="Línea 57" x2="251" transform="translate(0 180.042)" fill="none" stroke="#3b3b3b" stroke-miterlimit="10" stroke-width="2"/>
      <circle id="Elipse_92" data-name="Elipse 92" cx="4.171" cy="4.171" r="4.171" transform="translate(99.381 14.278)" fill="none" stroke="#1b516a" stroke-miterlimit="10" stroke-width="2"/>
      <circle id="Elipse_93" data-name="Elipse 93" cx="4.171" cy="4.171" r="4.171" transform="translate(222.62 93.705)" fill="none" stroke="#1b516a" stroke-miterlimit="10" stroke-width="2"/>
      <circle id="Elipse_94" data-name="Elipse 94" cx="4.171" cy="4.171" r="4.171" transform="translate(194.147 52.154)" fill="none" stroke="#1b516a" stroke-miterlimit="10" stroke-width="2"/>
      <circle id="Elipse_95" data-name="Elipse 95" cx="4.681" cy="4.681" r="4.681" transform="translate(166.273 86.878)" fill="#1a88a4"/>
      <circle id="Elipse_96" data-name="Elipse 96" cx="6.17" cy="6.17" r="6.17" transform="translate(179.819 70.345)" fill="#e4bbab" opacity="0.5"/>
      <path id="Trazado_279" data-name="Trazado 279" d="M784.044,373.015a8.723,8.723,0,0,0-12.335.153c-3.364,3.448-8.167,20.863-8.167,20.863s17.29-5.233,20.655-8.681a8.723,8.723,0,0,0-.153-12.335Zm-9.062,9.29a4.042,4.042,0,1,1,5.716-.071,4.042,4.042,0,0,1-5.716.071Z" transform="translate(-591.816 -302.896)" fill="#1a88a4"/>
    </g>
  </g>
</svg>
