<svg xmlns="http://www.w3.org/2000/svg" width="771.605" height="485.124" viewBox="0 0 771.605 485.124">
  <g id="Grupo_100" data-name="Grupo 100" transform="translate(-430.014 -186.725)">
    <g id="Capa_2" data-name="Capa 2" transform="matrix(1, 0.017, -0.017, 1, 438.385, 180.473)" opacity="0.7">
      <g id="Grupo_7" data-name="Grupo 7" transform="translate(515.577 330.563)">
        <path id="Oceania" d="M326.616,491.406c-1.308-2.354,2.485-4.707,4.838-3.53s3.53,3.923,5.231,5.884,4.969,3.531,6.8,1.569,0-5.884-2.223-7.976a146.609,146.609,0,0,0-26.152-21.314,37.653,37.653,0,0,0-15.691-6.538,11.378,11.378,0,0,0-7.977,1.439,6.538,6.538,0,0,0-2.354,7.453c1.177,2.615,4.315,3.661,6.931,4.577a39.228,39.228,0,0,1,23.014,41.712c-5.492-2.615-6.407-10.984-11.638-14.253s-13.076,0-19.352,4.838l-17,13.075a55.854,55.854,0,0,0-12.161,11.376,31.123,31.123,0,0,0-4.446,26.152,61.193,61.193,0,0,1,5.885,21.052,7.193,7.193,0,0,0,0,4.707,5.363,5.363,0,0,0,2.485,1.569,20.79,20.79,0,0,0,20.267-4.053c2.485-2.224,4.577-4.969,7.192-6.931a20.528,20.528,0,0,1,22.752,0,80.924,80.924,0,0,1,17.783,17,11.766,11.766,0,0,0,9.807,5.1,19.221,19.221,0,0,0,17.914-6.669,21.573,21.573,0,0,0,3.269-8.892,57.407,57.407,0,0,0-11.245-44.458c-5.623-6.93-13.076-12.291-18.568-18.96a32.3,32.3,0,0,1-9.284-24.583h7.845" transform="translate(-253.293 -459.305)" fill="#e4bbab"/>
        <path id="Nueva_Zelanda" data-name="Nueva Zelanda" d="M275.339,479.374a96.467,96.467,0,0,0-12.16,21.052,10.719,10.719,0,0,0-.916,3.792,6.016,6.016,0,0,0,4.578,6.015,13.076,13.076,0,0,0,13.076-7.976,53.087,53.087,0,0,0,5.753-19.352c0-5.492,0-13.076-3.138-14.776s-5.1,0-6.669,3.269a23.667,23.667,0,0,0-2.092,10.2" transform="translate(-145.004 -360.842)" fill="#e4bbab"/>
      </g>
      <path id="Groenlandia" d="M240.38,462.558a19.217,19.217,0,0,1-8.63,6.146,7.584,7.584,0,0,0,9.023,6.015c3.661,0,7.976-1.308,10.461,2.354a14.244,14.244,0,0,1,2.092,6.015l4.315,18.96c1.177,5.361,3.138,11.507,7.061,13.076s7.454-3.792,10.853-7.192c8.761-9.022,21.052-8.369,30.859-15.3a7.192,7.192,0,0,0,3.4-4.707,24.859,24.859,0,0,1,0-4.577c1.177-3.4,5.492-.653,7.846-2.746a4.582,4.582,0,0,0,1.308-2.353c1.176-4.577-2.223-9.285-1.308-13.861a9.282,9.282,0,0,1,7.453-6.669c0-2.877.654-6.407-1.046-7.977s-6.146,3.269-9.415,2.616-4.185-11.115-8.369-13.076c-1.7-.915-3.792,0-5.622.784A42.1,42.1,0,0,1,281.57,443.6c-3.792,0-8.238-.785-10.984,3.138-1.046,1.569-1.569,3.53-2.746,4.969-3.138,3.792-7.976,0-12.16-.654a15.037,15.037,0,0,0-16.214,12.16" transform="translate(2.138 -375.143)" fill="#e4bbab"/>
      <path id="America" d="M251.22,451.371a33.868,33.868,0,0,0-36.482,6.146,84.3,84.3,0,0,1,10.723,4.446c0,6.408-10.592.916-11.507,7.192s5.492,8.238,3.531,11.9l7.976,3.269L215.653,495.7c11.638,5.492,22.229-13.076,34.651-14.253a26.938,26.938,0,0,1,20.922,11.9A61.2,61.2,0,0,1,284.3,517.013c1.177,4.576,1.831,9.545,2.615,14.384a185.435,185.435,0,0,0,17.522,55.18,35.177,35.177,0,0,0-3.4-23.8c7.584,6.408,7.06,21.837,13.076,31.644,7.715,13.992,25.106,13.076,32.69,26.152a89.4,89.4,0,0,0,5.361,11.245c2.353,3.269,6.8,4.446,8.761.785a10.591,10.591,0,0,1,1.569,9.807,52.916,52.916,0,0,1-4.184,9.154,51.259,51.259,0,0,0,0,43.543c2.223,4.445,4.969,8.237,6.93,13.075a78.459,78.459,0,0,1-2.092,44.589,447.863,447.863,0,0,0-10.33,62.242,45.372,45.372,0,0,0,3.923,29.29,11.769,11.769,0,0,0,20.268-.785,30.073,30.073,0,0,1-4.968-26.151c1.83-9.415,5.622-18.045,6.668-27.721a29.684,29.684,0,0,0,19.222-17.129,45.509,45.509,0,0,0,13.86-23.537,33.748,33.748,0,0,1,2.093-7.322c2.484-4.707,7.322-5.361,11.115-7.845a22.622,22.622,0,0,0,9.153-15.3,117.657,117.657,0,0,1,1.961-16.737c2.092-6.8,7.977-11.376,8.63-18.7a18.436,18.436,0,0,0-9.676-16.737A41.963,41.963,0,0,1,420.03,656.4c-3.269-4.185-4.838-10.33-7.977-14.907-6.407-9.676-17.652-10.068-25.237-18.045a19.622,19.622,0,0,0-6.145-5.753,4.445,4.445,0,0,0-5.623,4.445,5.623,5.623,0,0,1,1.177-6.407c-4.315-3.269-7.976,6.015-13.076,8.892s-8.63-.785-9.807-6.146c-.654-2.746,0-5.884-1.046-8.5s-3.923-5.492-5.753-8.5-1.569-8.891,1.308-9.153a4.184,4.184,0,0,0-6.407-2.746c-2.485,1.046-4.838,3.138-7.323,2.223s-3.792-4.707-4.446-8.107a23.406,23.406,0,0,1,1.177-15.037,8.107,8.107,0,0,1,13.076-1.962,27.065,27.065,0,0,1,7.584,15.037,34.921,34.921,0,0,0,3.661,11.508c2.092,3.138,6.407,3.922,8.107,0a22.623,22.623,0,0,1-3.269-18.437,59.616,59.616,0,0,1,7.453-16.868L382.5,531.788c1.7-3.008,3.661-6.145,6.408-6.669s9.022,5.884,13.076,3.269,3.007-10.068,0-13.076a14.252,14.252,0,0,0-11.376-3.531,24.712,24.712,0,0,1,15.168-6.276c0,7.846,7.846,13.076,13.076,9.415a5.753,5.753,0,0,0,2.354-4.969,7.451,7.451,0,0,0-.915-2.877,61.324,61.324,0,0,0-44.328-36.744,22.36,22.36,0,0,1-10.069,20.66,13.076,13.076,0,0,1-17.521-7.322,9.931,9.931,0,0,1-1.308-3.922,7.583,7.583,0,0,1,6.8-8.369c3.53,0,6.8,1.438,10.33,1.438a7.454,7.454,0,0,0,7.322-7.715,13.088,13.088,0,0,1,0-4.577,1.812,1.812,0,0,1,2.615-1.569,21.576,21.576,0,0,0,15.691,17.392,22.1,22.1,0,0,0,19.744-9.155,65.381,65.381,0,0,0-45.374-22.23,18.966,18.966,0,0,0-11.245,2.224,91.645,91.645,0,0,0-9.415,8.369,8.238,8.238,0,0,1-10.723,1.438,10.592,10.592,0,0,0-5.1-11.768,32.572,32.572,0,0,0-11.245-1.7c-4.838-.654-9.415-3.138-14.253-3.923a11.9,11.9,0,0,0-13.076,6.014,33.342,33.342,0,0,0,17.26,8.368l-16.345-.652-38.312-1.308" transform="translate(-213.863 -370.101)" fill="#e4bbab"/>
      <path id="Europa_y_Asia" data-name="Europa y Asia" d="M288.376,541.446c-5.492-9.414-13.076-19.875-21.968-15.43a39.235,39.235,0,0,0-9.938,12.292c-3.007,4.576-7.976,8.106-12.029,5.229a10.461,10.461,0,0,1-1.961-12.422c3.007-5.23,10.591-7.584,9.022-13.861,0-1.308-1.177-2.354-1.438-3.662-1.177-4.969,3.661-8.107,7.453-9.022-3.4.916-6.8-2.746-8.107-7.061a40.665,40.665,0,0,1-.784-13.861c3.53-2.877,7.715,2.092,10.068,6.669s6.015,9.938,9.807,7.846,5.622-12.292,9.937-10.722,3.007,5.884,5.1,8.238,8.891,0,11.9-5.361,6.538-11.115,11.245-9.807c-5.623,2.877-11.9-6.93-9.023-13.861-2.092-3.269-6.146,1.438-6.407,5.753a39.233,39.233,0,0,1,0,13.076c-2.876,6.407-10.2,3.138-14.906-.785a12.291,12.291,0,0,1-3.792-4.707c-2.354-6.146,3.007-12.161,7.584-15.3,13.076-9.284,28.767-18.829,43.543-13.076a10.069,10.069,0,0,1,6.668,6.669c.916,3.661-2.092,8.369-4.445,6.538l29.682-4.969a27.469,27.469,0,0,0,10.461-3.007c5.492-3.4,9.545-10.2,15.037-13.076A9.023,9.023,0,0,1,393.245,454.1c5.23-11.115,17.129-10.069,26.151-13.076,3.792-1.308,7.323-3.531,11.115-4.838,22.752-8.63,46.158,11.507,69.695,9.676a3.662,3.662,0,0,0,2.223-.915c1.569-1.832,0-5.754.916-8.108s3.661-1.569,5.623-.653a212.168,212.168,0,0,0,34,14.122,43.3,43.3,0,0,0,17.652,3.007A48.379,48.379,0,0,1,575,452.53a12.512,12.512,0,0,1-3.138,24.452c-5.231.915-11.115,1.569-14.253,7.322s-1.7,18.045-6.8,22.622-11.768-3.269-12.03-11.245a41.321,41.321,0,0,1,6.93-21.314c-9.022,10.2-24.452,4.445-32.69,15.822a25.367,25.367,0,0,1-2.223,32.3c-3.268,2.354-7.453,3.531-9.153,7.715a29.678,29.678,0,0,0,0,12.291c0,4.184,0,9.415-3.53,10.461s-5.361-2.223-6.669-5.492a55.972,55.972,0,0,0-3.792-9.938c-1.961-2.876-5.884-3.661-7.322,0a33.866,33.866,0,0,1,1.045,40.928c-3.923,4.445-9.414,7.322-10.852,13.991a34.808,34.808,0,0,1-1.308,6.8,3.923,3.923,0,0,1-6.277,1.7,7.977,7.977,0,0,1-.785-8.5c-1.307,5.361,3.531,9.676,5.23,14.776a13.075,13.075,0,0,1-4.446,14.907c-4.315,2.092-9.415-1.7-10.591-7.453l-2.093,3.661-6.538-15.168-4.185,1.438c0-8.761-6.8-16.084-13.076-15.43a18.306,18.306,0,0,0-13.075,17.391,84.986,84.986,0,0,1-.785,13.077c-1.046,4.053-4.707,7.453-7.453,4.968a11.241,11.241,0,0,1-2.354-6.8,57.536,57.536,0,0,0-10.853-30.99,46.822,46.822,0,0,0-22.229-10.2,56.621,56.621,0,0,1-20.137-13.077,9.283,9.283,0,0,0,3.138,11.114,17.256,17.256,0,0,0,9.937,1.7,9.934,9.934,0,0,1,9.153,4.052,15.426,15.426,0,0,1,0,14.514,26.154,26.154,0,0,1-9.022,9.284,113.574,113.574,0,0,1-13.076,7.715,5.1,5.1,0,0,1-4.315.785,8.888,8.888,0,0,1-3.138-4.446c-6.276-13.076-12.422-26.153-18.568-40.013-2.092-4.577-4.054-11.245-.916-14.645a60.779,60.779,0,0,0-14.776-10.722l-5.622,6.014-9.153-17.653a8.108,8.108,0,0,0-3.269,8.5" transform="translate(116.938 -434.025)" fill="#e4bbab"/>
      <g id="Grupo_8" data-name="Grupo 8" transform="translate(356.435 167.702)">
        <path id="Africa" d="M258.1,457.572a120.835,120.835,0,0,1-12.03,27.59,66.948,66.948,0,0,0,5.361,60.934,14.9,14.9,0,0,0,5.884,5.23c6.8,2.876,13.076-6.015,20.529-6.407a3.8,3.8,0,0,1,2.354,0,6.544,6.544,0,0,1,1.438,2.223,5.884,5.884,0,0,0,8.892,2.092,59.1,59.1,0,0,0,.915,27.068,95.8,95.8,0,0,1,3.007,10.46,103.179,103.179,0,0,1-3.268,29.421,59.228,59.228,0,0,0,7.191,37,79.757,79.757,0,0,1,8.5,14.514,36.494,36.494,0,0,0,3.792,9.807c4.184,5.361,11.245,1.7,14.776-4.315s4.707-13.992,7.715-20.4a63.681,63.681,0,0,0,8.761-18.568,31.372,31.372,0,0,1,2.223-13.076c1.438-2.223,3.922-2.877,5.753-4.838a18.83,18.83,0,0,0,2.484-14.384,95.725,95.725,0,0,1-2.484-14.907,58.446,58.446,0,0,1,10.853-28.113,91.527,91.527,0,0,0,9.284-30.728,13.079,13.079,0,0,1-10.853-.916,18.309,18.309,0,0,1-4.838-6.93,134.007,134.007,0,0,1-7.454-18.307,72.615,72.615,0,0,0-5.492-13.075,52.348,52.348,0,0,1-5.1-7.715c-1.7-3.661-1.962-8.107-3.662-11.638a16.475,16.475,0,0,0-15.822-8.106,8.241,8.241,0,0,0-4.969.915c-.915.654-1.7,1.831-2.746,2.354s-4.315,0-6.276-1.177l-6.407-3.661a8.238,8.238,0,0,1-3.269-2.746,39.206,39.206,0,0,1-1.569-4.707,8.5,8.5,0,0,0-7.192-5.623,18.175,18.175,0,0,0-8.5,2.092L257.441,456.4" transform="translate(-241.122 -446.85)" fill="#e4bbab"/>
        <path id="Madagascar" d="M258.669,464.085a11.115,11.115,0,0,0-6.146,9.284,52.248,52.248,0,0,0,0,7.715,75.442,75.442,0,0,1,0,9.414,21.02,21.02,0,0,0,0,5.754,5.622,5.622,0,0,0,2.877,4.184,4.446,4.446,0,0,0,5.754-2.222,23.125,23.125,0,0,0,2.353-5.492,98.319,98.319,0,0,0,3.923-38.051,7.716,7.716,0,0,0-6.669,4.837,10.713,10.713,0,0,1-1.438,2.747,1.438,1.438,0,0,1-2.353,0" transform="translate(-105.836 -352.417)" fill="#e4bbab"/>
      </g>
    </g>
    <g id="Capa_1" data-name="Capa 1" transform="matrix(-0.259, -0.966, 0.966, -0.259, 1039.982, 653.995)" opacity="0.9">
      <g id="Avion">
        <g id="sombra_del_avion" data-name="sombra del avion" transform="translate(0 2.105)">
          <g id="layer1">
            <g id="rect3052">
              <path id="Trazado_55" data-name="Trazado 55" d="M408.762,443.786c-3.886-3.886-17.136,6.217-23.314,11.152-1.749,1.593-3.381,2.953-4.9,4.546L364.5,476.349a2.409,2.409,0,0,1-2.448.894l-24.869-2.564c-1.515-.35-2.759-1.593-.622-3.614L338,469.549a2.254,2.254,0,0,0-.194-3.108l-2.021-1.982a2.1,2.1,0,0,0-3.031,0l-8.432,8.859c-.272.272-.35.233-.7.194L299.846,471.3c-2.176-.466-1.865-1.826-.466-3.458l2.642-2.759a2.254,2.254,0,0,0-.194-3.109l-2.021-1.982a2.1,2.1,0,0,0-3.031,0l-8.743,9.17h-.272L262.582,466.4a5.518,5.518,0,0,0-4.624,2.021l-4.974,5.09a1.049,1.049,0,0,0,.389,1.826s37.652,10.219,50.514,15.543a216.8,216.8,0,0,1,27.938,15.193c1.165.738,2.059,1.593,1.515,2.875l-35.36,37.108-1.477,1.555c-4.391,4.663-5.168,9.287-8.665,9.054l-28.871-1.4a6.024,6.024,0,0,0-4.663,1.671l-1.516,1.632c-.66.777-.738,1.477,0,2.1L277,575.861a1.594,1.594,0,0,1,.933,1.671l-1.943,6.178,6.567-1.787a2.021,2.021,0,0,1,1.982.932c4.818,7.461,9.676,14.882,14.494,22.3.7.894,1.36,1.516,2.409.622l2.332-2.448a9.481,9.481,0,0,0,.738-5.984l-3.886-27.822c0-2.836,3.886-4.313,8.976-8.432l1.477-1.554,34.971-36.681h.388s2.215.311,2.293.35l.35.466a213.134,213.134,0,0,1,15.115,26.733c5.945,13.212,17.913,52.613,17.913,52.613.466.661,1.049,1.088,1.632.622l5.051-4.974a5.635,5.635,0,0,0,1.4-4.313l-3.031-25.335c0-1.01,0-1.2.35-1.554l8.626-9.093a2.215,2.215,0,0,0-.194-3.108l-1.982-1.982a2.176,2.176,0,0,0-3.07,0l-2.6,2.758c-1.438,1.787-2.448,1.943-2.837,0l-3.264-24.519v-.855l8.432-8.821a2.253,2.253,0,0,0-.194-3.108l-2.021-2.021a2.1,2.1,0,0,0-3.031,0l-1.438,1.515c-1.787,2.293-3.653,1.243-3.691-.738l-3.108-25.218a2.682,2.682,0,0,1,.777-2.409l16.126-16.9a69.17,69.17,0,0,0,4.508-5.4c4.857-6.761,14.571-21.993,10.142-23.625Z" transform="translate(-251.601 -441.571)" fill="#1a88a4"/>
              <path id="Trazado_56" data-name="Trazado 56" d="M410.227,448.126l-2.02-1.515a1.826,1.826,0,0,0-1.438-.505,5.636,5.636,0,0,0-1.982.35,22.465,22.465,0,0,0-4.468,1.982,79.871,79.871,0,0,0-8.587,5.673A113.521,113.521,0,0,0,376.5,468.293l-7.305,7.771-1.826,1.9a9.913,9.913,0,0,1-2.487,2.137,4.391,4.391,0,0,1-2.215.272h-1.36l-2.6-.311-21.022-2.215h-.194a4.276,4.276,0,0,1-2.409-1.36,3.147,3.147,0,0,1-.427-3.381,5.789,5.789,0,0,1,1.36-1.865l1.127-1.2.272-.272h0a1.008,1.008,0,0,0,0-.427l-2.1-2.1c-.311-.272-.544,0-.622,0l-2.293,2.409-4.624,4.857-1.166,1.2-.311.272a1.789,1.789,0,0,1-1.049.738c-.894.194-.932,0-1.049,0h-.428l-3.342-.311-6.683-.622-13.328-1.282h-.194a4.931,4.931,0,0,1-1.36-.505,2.8,2.8,0,0,1-1.4-1.671,3.652,3.652,0,0,1,.816-3.186,37.3,37.3,0,0,1,2.8-3.031c.622-.661.544-.583.583-.738a.9.9,0,0,0,0-.583l-1.282-1.243-.661-.7-.35-.272c-.544,0-.233-.35-1.438.933l-2.72,2.837-2.681,2.8-1.36,1.4-.661.738-.35.35-.389.35a1.591,1.591,0,0,1-.971.311h-.35l-25.141-2.8h.077a5.676,5.676,0,0,0-2.409.467,9.934,9.934,0,0,0-1.943,1.709l-4.313,3.653h-.194s.272-.35,0-.544,0,0,0-.194h0c14.222,3.886,28.4,8,42.432,12.745a121.208,121.208,0,0,1,20.439,8.976c3.264,1.788,6.45,3.614,9.637,5.518l4.741,2.914c.816.544,1.516.932,2.409,1.632a3.884,3.884,0,0,1,1.282,1.554,3.186,3.186,0,0,1,0,2.331v.233h0l-34.7,36.253a44.792,44.792,0,0,0-4.119,4.585c-1.2,1.593-2.137,3.38-3.614,5.207a5.129,5.129,0,0,1-3.419,1.943h-3.3l-6.256-.311-12.784-.466-6.256-.35a5.945,5.945,0,0,0-5.09,1.321h0l-1.554,1.671a1.717,1.717,0,0,0,0,.35v.194h0l12.939,8.16,6.45,4.08,3.225,2.059,1.632,1.01a2.564,2.564,0,0,1,1.282,2.526v.233l-1.943,6.139-1.166-1.243,6.528-1.748h0a2.914,2.914,0,0,1,2.953,1.477h0l14.455,22.343h0a2.8,2.8,0,0,0,.7.7l.427-.194h0l2.331-2.409h0a8.9,8.9,0,0,0,.66-5.518h0l-3.886-27.822h0a4.313,4.313,0,0,1,1.671-3.342,18.047,18.047,0,0,1,2.6-2.021,43.253,43.253,0,0,0,5.013-3.886h0l36.487-38.158.233-.194h-.155l.427-.427.466.427h-.933l.466-.505.505.466h-.894l.466-.544.466.544h-.505a.541.541,0,0,1,.35,0h2.1l.661.311a27.231,27.231,0,0,1,1.671,2.41l2.953,4.74c1.982,3.186,3.886,6.45,5.634,9.714a130.765,130.765,0,0,1,9.17,20.516c5.051,14.105,9.52,28.366,13.872,42.743h0a1.435,1.435,0,0,0,.544.544.272.272,0,0,0,.389,0h0l3.186-3.342a7.421,7.421,0,0,0,2.487-3.5,11.229,11.229,0,0,0,0-4.391l-.505-4.585-2.137-18.263h0a2.487,2.487,0,0,1,.466-1.865l1.2-1.244,2.409-2.526,4.779-4.974a1.9,1.9,0,0,0,.233-2.681c-.7-.777-1.632-1.671-2.37-2.37-1.943-1.593-3.419,1.4-5.013,2.8h0a4.894,4.894,0,0,1-1.282,1.244,1.359,1.359,0,0,1-1.01.272,1.282,1.282,0,0,1-.816-.738,15.529,15.529,0,0,1-.583-3.381l-.894-6.645-1.749-13.367-.194-1.671v-.855c0-.544.389-.622.505-.855l2.331-2.409,4.663-4.857c.738-.855,1.788-1.515,1.632-2.6s-1.01-1.71-1.787-2.526-1.554-1.71-2.642-1.516-1.593,1.321-2.409,2.021h0a2.914,2.914,0,0,1-2.448,1.36,2.1,2.1,0,0,1-1.593-2.215h0l-1.671-13.911-.855-6.956-.427-3.458a9.044,9.044,0,0,1,0-1.787,3.147,3.147,0,0,1,.816-1.593h0l9.909-10.375a138.522,138.522,0,0,0,9.675-10.608,102.276,102.276,0,0,0,7.966-11.89,58.271,58.271,0,0,0,3.225-6.411,18.284,18.284,0,0,0,1.049-3.42Zm-6.606-5.362,5.634,2.215c1.2.505,1.243,2.059,1.01,3.147a20.478,20.478,0,0,1-1.049,3.419,49.472,49.472,0,0,1-3.225,6.411,91.2,91.2,0,0,1-7.771,11.968,138.727,138.727,0,0,1-9.6,10.646l-10.025,10.3h0a3.225,3.225,0,0,0-.661,3.186l.466,3.458.855,6.956,1.749,13.911h0a1.71,1.71,0,0,0,1.243,1.826,2.525,2.525,0,0,0,2.1-1.244h0l1.166-1.2a2.215,2.215,0,0,1,1.516-.932c1.321-.272,2.254.855,2.992,1.593s1.865,1.477,1.9,2.837a2.215,2.215,0,0,1-.583,1.71l-1.166,1.2-4.624,4.9-2.293,2.409c-.194.233-.466.427-.389.505v.816l.233,1.671,1.787,13.289.894,6.684a15.544,15.544,0,0,0,.583,3.186c.349,1.01,1.437,0,2.02-.894h0l2.37-2.526a2.448,2.448,0,0,1,3.5-.389c.932.855,1.671,1.593,2.526,2.487a2.643,2.643,0,0,1-.272,3.575l-4.624,4.818-2.37,2.526-1.2,1.243c-.311.233-.233.777-.272,1.4h0l2.215,18.263.544,4.585a11.892,11.892,0,0,1,0,4.7,5.636,5.636,0,0,1-1.088,2.215l-1.593,1.671-3.186,3.342h0a1.243,1.243,0,0,1-1.438,0,2.251,2.251,0,0,1-.855-.855h0c-4.391-14.26-8.937-28.521-14.027-42.548a128.806,128.806,0,0,0-9.209-20.283c-1.787-3.264-3.653-6.489-5.634-9.675l-2.992-4.7a16.955,16.955,0,0,0-1.515-2.215c0,.194-2.06-.389-1.827,0l2.448,3.458-3.3-3.575h.933l-.466.505-.466-.466h.933l-.427.5-.505-.466h.855l-.466.427-.466-.427h.971L311.141,562.6h0c-1.632,1.4-3.419,2.642-5.129,3.886s-3.653,2.487-3.536,3.885h0l3.886,27.822h0v3.186a7.461,7.461,0,0,1-1.01,3.3h0l-2.332,2.448h0a3.1,3.1,0,0,1-.933.544,1.749,1.749,0,0,1-1.321,0,3.884,3.884,0,0,1-1.438-1.2h0L284.757,584.2h0a1.05,1.05,0,0,0-.971-.466h0l-6.528,1.788-1.71.466.505-1.71L278,578.1v.233c0-.427,0-.389-.35-.66l-1.632-1.01-3.264-2.021-6.489-4.08-12.978-8.121h0a2.449,2.449,0,0,1-1.01-1.749,2.8,2.8,0,0,1,.622-1.787l.855-.894.777-.894h0a6.838,6.838,0,0,1,3.225-1.71,12.7,12.7,0,0,1,3.38,0l6.256.272,12.551.583,6.295.311h2.992a2.875,2.875,0,0,0,1.826-1.127c1.166-1.477,2.215-3.419,3.5-5.129a46.635,46.635,0,0,1,4.274-4.78l34.544-36.409-.272.389c0-.427,0-.35-.427-.894a9.9,9.9,0,0,0-2.215-1.438l-4.7-2.876c-3.147-1.865-6.334-3.691-9.559-5.4a115.879,115.879,0,0,0-20.05-8.7c-13.911-4.624-28.132-8.626-42.315-12.512h0a2.875,2.875,0,0,1-1.671-1.865,2.526,2.526,0,0,1,.933-2.565h0l4.274-4.43a11.856,11.856,0,0,1,2.681-2.331,9.289,9.289,0,0,1,3.575-.816h-.233l25.141,2.681h-.194c-1.36.583-.427,0-.35,0l.661-.7,1.321-1.4,2.681-2.837,2.681-2.837a8.621,8.621,0,0,1,1.865-1.632,3.652,3.652,0,0,1,3.3,0,4.428,4.428,0,0,1,1.2.894l.7.661c.505.505.816.777,1.477,1.516a3.885,3.885,0,0,1,.855,3.07,3.5,3.5,0,0,1-.622,1.593,11.681,11.681,0,0,1-.816.894c-.777.894-1.943,1.982-2.448,2.681s-.35.894-.35.427-.194-.194.311,0h-.194l13.367,1.2,6.645.622,3.342.311h.194c-.583,0-.505.311-.427,0l.272-.311,1.166-1.2,4.624-4.857,2.293-2.448a3.885,3.885,0,0,1,5.44,0l1.244,1.2.583.583.311.311.466.544a4.236,4.236,0,0,1,.738,2.759,3.459,3.459,0,0,1-.466,1.438,3.58,3.58,0,0,1-.777,1.01,22.2,22.2,0,0,0-1.826,2.059c0,.194,0-.233,0-.272a4.331,4.331,0,0,0,.505,0h-.194l21.022,2.137,2.642.272h1.671a14.427,14.427,0,0,0,1.4-1.4l1.826-1.9,7.266-7.771c2.487-2.526,4.741-5.168,7.383-7.771a78.015,78.015,0,0,1,8.238-7.033,80.343,80.343,0,0,1,8.976-6.023,27.218,27.218,0,0,1,5.09-1.593Z" transform="translate(-252.094 -442.57)" fill="#1a88a4"/>
            </g>
          </g>
        </g>
        <path id="Avion_orginal" data-name="Avion orginal" d="M409.147,442.812c-3.886-3.652-17.058,6.373-23,11.23-1.749,1.554-3.341,2.914-4.818,4.468l-15.893,16.631a2.564,2.564,0,0,1-2.448.894l-24.868-1.982c-1.554-.311-2.8-1.515-.7-3.5l1.438-1.477a2.1,2.1,0,0,0-.233-2.992l-2.021-1.9a2.215,2.215,0,0,0-3.07,0L325.216,473c-.272.272-.35.233-.7.233l-23.78-1.671c-2.215-.427-1.9-1.749-.544-3.342l2.6-2.72a2.1,2.1,0,0,0-.194-2.992l-2.021-1.865a2.176,2.176,0,0,0-3.07,0l-8.626,9.015h-.311l-25.18-2.176a5.673,5.673,0,0,0-4.624,2.02l-4.9,5.013a1.01,1.01,0,0,0,.389,1.787s37.769,9.093,50.825,14.1a212.931,212.931,0,0,1,28.094,14.105c1.2.7,2.1,1.477,1.554,2.759L299.765,543.8l-1.438,1.516c-4.313,4.546-5.051,9.054-8.549,8.9l-28.91-.777a6.373,6.373,0,0,0-4.663,1.671L254.73,556.7c-.661.777-.7,1.477,0,2.059l24.363,14.183a1.477,1.477,0,0,1,.971,1.593l-1.865,5.984,6.528-1.865a2.02,2.02,0,0,1,1.982.894l14.766,21.255c.7.816,1.36,1.4,2.409.505l2.293-2.37a9.016,9.016,0,0,0,.7-5.828l-4.041-26.85c0-2.72,3.886-4.2,8.9-8.315l1.438-1.515,34.583-36.059h.388q1.152.079,2.293.272l.389.427a198.966,198.966,0,0,1,15.543,25.49c6.1,12.628,18.5,50.514,18.5,50.514.466.661,1.049,1.01,1.632.583l4.507-4.7a5.4,5.4,0,0,0,1.36-4.2l-3.3-24.4c0-.972,0-1.166.311-1.515l8.549-8.9a2.176,2.176,0,0,0-.233-3.031l-2.02-1.865a2.176,2.176,0,0,0-3.07,0l-2.6,2.72c-1.36,1.749-2.409,1.9-2.8,0l-3.536-23.586v-.855l8.316-8.665a2.175,2.175,0,0,0-.233-3.031l-2.02-1.865a2.176,2.176,0,0,0-3.07,0l-1.4,1.476c-1.749,2.293-3.653,1.321-3.691-.622l-3.381-24.247a2.488,2.488,0,0,1,.738-2.332l15.931-16.67a67.22,67.22,0,0,0,4.469-5.284c4.741-6.606,14.3-21.527,9.831-23Z" transform="translate(-248.101 -442.028)" fill="#ea8c8c"/>
      </g>
    </g>
  </g>
</svg>
