<svg xmlns="http://www.w3.org/2000/svg" width="251" height="181.042" viewBox="0 0 251 181.042">
  <g id="Grupo_105" data-name="Grupo 105" transform="translate(0 0)">
    <circle id="Elipse_87" data-name="Elipse 87" cx="8.761" cy="8.761" r="8.761" transform="translate(40.427 12.758)" fill="#2f2e41"/>
    <path id="Trazado_253" data-name="Trazado 253" d="M235.615,533.168,241,514.5l1.832.573s-2.176,13.973-5.612,17.523Z" transform="translate(-213.111 -406.168)" fill="#3b3b3b"/>
    <path id="Trazado_254" data-name="Trazado 254" d="M304.5,223.119s.687,7.33-.916,9.391,1.031,6.07,1.031,6.07l4.81,5.726,7.1-3.207,1.031-5.956-.687-4.123a7.308,7.308,0,0,1-1.374-6.757C316.53,219.912,304.5,223.119,304.5,223.119Z" transform="translate(-261.5 -196.331)" fill="#ffb9b9"/>
    <path id="Trazado_255" data-name="Trazado 255" d="M304.5,223.119s.687,7.33-.916,9.391,1.031,6.07,1.031,6.07l4.81,5.726,7.1-3.207,1.031-5.956-.687-4.123a7.308,7.308,0,0,1-1.374-6.757C316.53,219.912,304.5,223.119,304.5,223.119Z" transform="translate(-261.5 -196.331)" opacity="0.1"/>
    <path id="Trazado_256" data-name="Trazado 256" d="M166.73,575.128v4.7l6.3,1.26-.573-7.788Z" transform="translate(-119.602 -411.249)" fill="#ffb9b9"/>
    <path id="Trazado_257" data-name="Trazado 257" d="M230.1,571.55l-1.375,6.528,2.749,1.947,4.81-3.55-.573-5.612Z" transform="translate(-164.073 -409.504)" fill="#ffb9b9"/>
    <path id="Trazado_258" data-name="Trazado 258" d="M319.111,724.077a4.856,4.856,0,0,0-6.872-1.517s-.8,4.495-1.6,4.839-5.268,6.872,0,7.444,7.9-1.145,7.9-1.145-1.031.887.573.429.916-2.978.916-2.978Z" transform="translate(-265.112 -554.816)" fill="#3b3b3b"/>
    <path id="Trazado_259" data-name="Trazado 259" d="M383.648,718.138s-3.55,2.52-4.123,1.374a1.565,1.565,0,0,0-1.489-1.031s-3.207,12.089-1.145,12.661a6.948,6.948,0,0,0,4.009-.207s2.749-1.925,2.749-.436,7.673,1.382,10.88,1.267,1.489-2.52,1.489-2.52l-4.238-4.123-4.81-6.986S384.793,716.191,383.648,718.138Z" transform="translate(-313.959 -551.625)" fill="#3b3b3b"/>
    <path id="Trazado_260" data-name="Trazado 260" d="M283.022,445.572l4.81,46.155s2.634,28.174,3.092,28.632,3.436,1.947,9.964,0L299.4,483.481l2.749-22.906,6.3,15.8s1.489,42.49,2.52,42.49,7.33,2.061,8.819-.458,1.26-29.663,1.26-29.663-.687-42.834-5.726-44.208S283.022,445.572,283.022,445.572Z" transform="translate(-247.118 -355.679)" fill="#3b3b3b"/>
    <circle id="Elipse_88" data-name="Elipse 88" cx="7.902" cy="7.902" r="7.902" transform="translate(41.286 15.22)" fill="#ffb9b9"/>
    <path id="Trazado_261" data-name="Trazado 261" d="M278.147,262.237s-.8-4.925-.8-5.841-3.55-1.489-3.55-1.489-2.749-3.092-3.321-2.634-9.277,6.3-10.651,7.1-2.863,4.238-2.749,4.467,7.215,15.118,7.215,15.118,3.092,9.162.916,13.973-4.925,14.316-.916,16.263,23.478,6.185,27.029,2.52,6.07-4.7,6.986-4.7-3.779-15.919-2.749-17.408-.458-10.766-.458-10.766l5.268-14.774s-.458-8.246-10.88-10.079l-6.235-3.023Z" transform="translate(-228.5 -217.125)" fill="#1a88a4"/>
    <path id="Trazado_262" data-name="Trazado 262" d="M252.088,455.976s-.573,5.5-.573,7.1-2.749,10.995,1.26,12.14,3.665-12.484,3.665-12.484v-6.986Z" transform="translate(-223.858 -364.022)" fill="#ffb9b9"/>
    <path id="Trazado_263" data-name="Trazado 263" d="M411.161,438.324s.687,5.268.344,6.414,3.321,11.109-1.6,11.682-3.665-11.911-3.665-11.911v-6.185Z" transform="translate(-335.402 -351.524)" fill="#ffb9b9"/>
    <path id="Trazado_264" data-name="Trazado 264" d="M252.227,529.3l3.321-17.637h1.031a6.937,6.937,0,0,1,1.031,6.643,83.657,83.657,0,0,0-2.52,10.995Z" transform="translate(-225.028 -404.133)" fill="#3b3b3b"/>
    <path id="Trazado_265" data-name="Trazado 265" d="M252.611,291.647l-1.718,1.374s-2.291,36.42-1.718,39.169-2.062,6.643.229,6.986,5.039,1.832,6.3.916,1.489-4.238,1.947-5.039,1.26-10.308,1.26-10.308,2.405-9.506.916-16.607-2.863-14.316-2.863-14.316Z" transform="translate(-222.319 -246.306)" fill="#1a88a4"/>
    <path id="Trazado_266" data-name="Trazado 266" d="M386.38,281.517l5.268,4.467,4.009,23.364s2.52,18.21.573,18.439-4.925-.344-6.185,0a2.682,2.682,0,0,1-2.291-.573s-1.374-7.33-1.374-7.444-.916-8.475-.916-8.475l-1.145-9.391,1.718-10.308Z" transform="translate(-319.782 -239.039)" fill="#1a88a4"/>
    <path id="Trazado_267" data-name="Trazado 267" d="M212.118,596s-.744,2.138-1.771,5.049c-.476,1.354-1.014,2.876-1.567,4.428-.356,1-.718,2.019-1.074,3.011-.568,1.586-1.12,3.109-1.6,4.417-.637,1.726-1.153,3.079-1.43,3.71-1.26,2.863-24.28-1.718-26.113-2.863s-2.291-5.039-2.52-10.537c0-.029,0-.057,0-.086a20.036,20.036,0,0,1,.726-4.7c.236-.969.52-2.009.836-3.089.424-1.449.9-2.967,1.408-4.479,2.16-6.494,4.706-12.841,4.706-12.841s4.467-3.092,6.07-5.154,10.422-3.665,10.422-3.665c2.52.115,8.246,9.85,10.537,12.827S212.118,596,212.118,596Z" transform="translate(-170.373 -445.406)" fill="#e4bbab"/>
    <circle id="Elipse_89" data-name="Elipse 89" cx="1.031" cy="1.031" r="1.031" transform="translate(27.887 131.123)" fill="#2f2e41"/>
    <circle id="Elipse_90" data-name="Elipse 90" cx="0.573" cy="0.573" r="0.573" transform="translate(29.948 132.727)" fill="#2f2e41"/>
    <path id="Trazado_268" data-name="Trazado 268" d="M214.317,656.018c-.476,1.354-1.014,2.876-1.567,4.428l-31.179-10.138c.424-1.449.9-2.967,1.408-4.479Z" transform="translate(-174.343 -500.375)" fill="#f2f2f2"/>
    <path id="Trazado_269" data-name="Trazado 269" d="M207.706,682.663c-.568,1.586-1.12,3.109-1.6,4.417L176.039,677.3a20.035,20.035,0,0,1,.726-4.7Z" transform="translate(-170.373 -519.582)" fill="#f2f2f2"/>
    <path id="Trazado_270" data-name="Trazado 270" d="M258.3,599.588s2.291,10.079.916,19.012,3.436,17.294,3.436,17.294" transform="translate(-229.388 -467.205)" fill="none" stroke="#2f2e41" stroke-miterlimit="10" stroke-width="3"/>
    <path id="Trazado_271" data-name="Trazado 271" d="M241.6,602.425s-4.467,16.263-4.581,18.554-1.947,18.668-4.238,20.386" transform="translate(-211.077 -469.24)" fill="none" stroke="#2f2e41" stroke-miterlimit="10" stroke-width="3"/>
    <path id="Trazado_272" data-name="Trazado 272" d="M307.033,177.486s-1.789-4.651.8-6.171l.716,2.057s6.529-3.935,8.228-3.041l-1.61,2.147s7.6,0,8.139,2.952l-2.683.089s2.862,1.878,2.952,4.919l-5.724.358,2.773,1.61s-10.375,1.431-12.879-2.683Z" transform="translate(-263.911 -159.186)" fill="#2f2e41"/>
    <path id="Trazado_273" data-name="Trazado 273" d="M303.078,189.946s2.062,4.123,4.81,3.092,0-4.81,0-4.81l-1.832-.916Z" transform="translate(-261.505 -171.462)" fill="#2f2e41"/>
    <path id="Trazado_274" data-name="Trazado 274" d="M578.074,214.766l-37.382-46.713a12.551,12.551,0,0,1-6.045,3.053A13.25,13.25,0,0,1,519.3,160.372a13.558,13.558,0,0,1,4.68-13.207l-12.746-15.928L438.615,193.3l66.843,83.529Z" transform="translate(-358.732 -131.237)" fill="#e4bbab" opacity="0.5"/>
    <circle id="Elipse_91" data-name="Elipse 91" cx="10.538" cy="10.538" r="10.538" transform="translate(162.356 16.573)" fill="#e4bbab" opacity="0.5"/>
    <rect id="Rectángulo_250" data-name="Rectángulo 250" width="4.932" height="14.357" transform="translate(103.729 77.8) rotate(-49.171)" fill="#ea8c8c"/>
    <rect id="Rectángulo_251" data-name="Rectángulo 251" width="4.932" height="12.726" transform="translate(173.563 144.535) rotate(-49.171)" fill="#ea8c8c"/>
    <path id="Trazado_275" data-name="Trazado 275" d="M597.682,408.386v.289q-.01,1.09-.062,2.17a48.332,48.332,0,0,1-96.5.631q-.1-1.534-.1-3.091a48.093,48.093,0,0,1,8.887-27.937q.7-.986,1.447-1.937c.345-.441.7-.871,1.059-1.3a48.341,48.341,0,0,1,67.355-6.392c.582.47,1.154.957,1.713,1.453q.671.6,1.318,1.22a48.2,48.2,0,0,1,14.717,30.827Q597.682,406.334,597.682,408.386Z" transform="translate(-403.497 -295.376)" fill="#1b516a"/>
    <path id="Trazado_276" data-name="Trazado 276" d="M533.914,491.551a54.415,54.415,0,0,1-39.9-91.419l1.205,1.118A52.771,52.771,0,0,0,571.8,473.873l1.18,1.144A53.984,53.984,0,0,1,533.914,491.551Z" transform="translate(-388.06 -324.127)" fill="#ea8c8c"/>
    <rect id="Rectángulo_252" data-name="Rectángulo 252" width="13.809" height="13.809" transform="translate(139.936 166.273)" fill="#ea8c8c"/>
    <path id="Trazado_277" data-name="Trazado 277" d="M511.353,422.063a.268.268,0,0,1,.066.039c.26.214-.066.625-.026.963.046.434.625.529,1.062.572s.99.4.782.786a4.846,4.846,0,0,1-3.331-.424,48.092,48.092,0,0,0-8.887,27.937q0,1.559.1,3.091a1.249,1.249,0,0,0,.3.161,6.387,6.387,0,0,1,1.013.279c.24.141.4.391.641.523.687.375,1.641-.345,2.282.1a5.88,5.88,0,0,1,.47.48c.592.513,1.565.168,2.249.552a2.668,2.668,0,0,1,.9,1.187,3.819,3.819,0,0,0,2.8,2.3,7.553,7.553,0,0,1,1.19.039c.388.089.769.427.707.819-.109.674.224,1.41.135,2.085-.161,1.233-1.907,1.772-2.055,3.005a7.421,7.421,0,0,1-.046.812c-.079.322-.322.585-.408.908a1.724,1.724,0,0,0,.75,1.624,4.433,4.433,0,0,1,1.315,1.338,6.9,6.9,0,0,1,.23,1.976,4.73,4.73,0,0,0,2.726,3.2,2.847,2.847,0,0,1,1.065.776,4.3,4.3,0,0,1,.408,1.673c.27,1.391,1.44,2.538,1.473,3.955a8.412,8.412,0,0,1-.871,2.874,6.63,6.63,0,0,0-.3,3.1,48.562,48.562,0,0,0,5.961,4.324,1.737,1.737,0,0,0,.247-.552,1.092,1.092,0,0,0-.51-1.131,2.7,2.7,0,0,0,.944-.6.926.926,0,0,0,.171-1.046,1.828,1.828,0,0,0,1.647-.335,1.471,1.471,0,0,0,.164-1.338,5.519,5.519,0,0,1-.329-1.361,24.5,24.5,0,0,0,4.018-.135,2.609,2.609,0,0,0-1.223-1.532,2.118,2.118,0,0,0,1.345-1.407,3.584,3.584,0,0,0,.026-1.818.967.967,0,0,1-.02-.473.931.931,0,0,1,.48-.464q1.5-.863,3-1.723a1.805,1.805,0,0,0,.48-.352,1.431,1.431,0,0,0,.105-1.384,6.976,6.976,0,0,1-.48-1.368c-.184-1.437,1.355-2.469,1.874-3.824a5.745,5.745,0,0,0,.283-1.674,1.988,1.988,0,0,0-.421-1.71c-.45-.378-1.151-.293-1.621-.644-.431-.322-.579-.944-1.049-1.2-.427-.237-.96-.085-1.437-.2-.835-.194-1.361-1.157-2.216-1.246-.48-.053-1.026.184-1.42-.1-.349-.25-.362-.746-.427-1.167a3.261,3.261,0,0,0-2.63-2.637,3.671,3.671,0,0,1-1.46-.322c-.427-.276-.621-.792-.96-1.177a4.018,4.018,0,0,0-2.193-1.023q-1.627-.38-3.252-.763c-.575-.138-1.318-.21-1.631.3a2.224,2.224,0,0,0-.191.608,1.886,1.886,0,0,1-1.769,1.328,2.09,2.09,0,0,0-1.23-.953,7.75,7.75,0,0,1-1-.237,1.4,1.4,0,0,1-.6-1.943,1.745,1.745,0,0,0-.3-2.094,2.83,2.83,0,0,0-2.094-.569c-.194-.424.131-.9.48-1.21s.776-.608.852-1.069c.122-.723-.8-1.272-1.5-1.059a2.616,2.616,0,0,0-1.443,1.568,4.73,4.73,0,0,1-.582,1.115,1.143,1.143,0,0,1-1.1.454c-.579-.148-.8-.835-.927-1.414a9.217,9.217,0,0,1-.309-2.371,3.1,3.1,0,0,1,.894-2.157c.957-.881,2.43-.8,3.722-.654a.948.948,0,0,1,.1-1.249,1.421,1.421,0,0,1,1.289-.316,1.768,1.768,0,0,1,1,.6,9.225,9.225,0,0,1,.75,1.562c.279.51.9.944,1.414.671a1.193,1.193,0,0,0,.4-1.338,4.97,4.97,0,0,1-.306-1.463c.076-.95,1.065-1.526,1.937-1.917s1.867-.921,2.006-1.868a1.745,1.745,0,0,1,.105-.539,1.055,1.055,0,0,1,.391-.368,32.936,32.936,0,0,1,8.036-4.3c.151-.049.168,0,.322-.033.217-.125.072-.47-.135-.608s-.483-.247-.536-.49c-.036-.178.069-.355.1-.536a.669.669,0,0,0-.878-.677c-.233-.309.227-.667.6-.773a16.436,16.436,0,0,1,3.436-.559.612.612,0,0,1,.391.066.465.465,0,0,1,.03.638,3.6,3.6,0,0,1-.523.477A1.436,1.436,0,0,0,528,436.48a3.276,3.276,0,0,0,1.94.519c.671-.108,1.266-.865.95-1.466-.293-.562-1.177-.69-1.328-1.305-.178-.72.842-1.361.611-2.065-.1-.309-.408-.493-.644-.714a1.945,1.945,0,0,1-.424-2.15,2.45,2.45,0,0,1-2.144-.671c-.513-.516-.921-1.335-1.651-1.309-.667.02-1.243.8-1.867.562-.155-.059-.316-.178-.464-.108a.384.384,0,0,0-.174.286c-.158.76.115,1.624-.3,2.282-.45.714-1.493.812-2.038,1.457-.3.349-.411.819-.684,1.187s-.848.6-1.177.283a1.62,1.62,0,0,0-.441-1.973,4.238,4.238,0,0,0-.973-.473,5.777,5.777,0,0,1-1.088-.6,1.078,1.078,0,0,1-.4-.427.982.982,0,0,1,.026-.677,2.768,2.768,0,0,1,2.2-1.822c.434-.059.94-.039,1.23-.372.151-.174.23-.441.454-.51a.662.662,0,0,1,.418.049l1.624.572a1.112,1.112,0,0,0,.579.1.389.389,0,0,0,.339-.411c-.053-.27-.467-.4-.427-.671a.426.426,0,0,1,.135-.23A5.81,5.81,0,0,1,526.892,424c.2.339-.118.737-.391,1.023s-.487.8-.158,1.023a.866.866,0,0,0,.431.1,3.757,3.757,0,0,1,1.151.348c.562.243,1.115.513,1.654.8a2.085,2.085,0,0,1,.039-1.065.723.723,0,0,1,.855-.464c.322.125.487.552.832.592.457.053.638-.625.447-1.046s-.572-.769-.6-1.233c-.023-.309.1-.694-.151-.881a.654.654,0,0,0-.293-.105l-6.2-1.138c-.368-.069-.9-.016-.914.355-.01.21.178.418.1.608s-.378.187-.589.26a.8.8,0,0,0-.46.845,2.3,2.3,0,0,0,.388.95c-.4-.168-1.013-.2-1.417-.368a5.456,5.456,0,0,0-.355-1.365.482.482,0,0,0-.628-.388c-.533.082-1.065.161-1.6.243a.618.618,0,0,0-.365.141c-.207.22,0,.572-.01.875a.82.82,0,0,1-.635.707,2.392,2.392,0,0,1-1.013-.013l-2.236-.345a3.663,3.663,0,0,0,1.69-1.131c.3-.349.454-1,.026-1.164a1.021,1.021,0,0,0-.388-.03c-1.013.007-1.812-.838-2.759-1.2a2.711,2.711,0,0,0-.93-.171Z" transform="translate(-403.497 -338.927)" fill="#e4bbab"/>
    <path id="Trazado_278" data-name="Trazado 278" d="M683.548,437.4a1.187,1.187,0,0,1-1.006.477c-1.029-.089-1.463-1.572-2.482-1.739a.4.4,0,0,0-.27.026c-.151.082-.177.286-.187.457a5.67,5.67,0,0,0,.253,2.512c.483,1.144,1.736,2.1,1.473,3.318a5.166,5.166,0,0,1-2.482-3.765,26.48,26.48,0,0,0-.986-4.56c-.457.582-1.41.1-1.825-.51-.395-.579-.638-1.249-1.019-1.838a2.262,2.262,0,0,0-1.664-1.144,2.982,2.982,0,0,0-1.93.947,4.466,4.466,0,0,0-1.2,1.335,6.066,6.066,0,0,0-.309,2.594,3.96,3.96,0,0,1-.868,2.647,1.919,1.919,0,0,1-2.555.309,2.881,2.881,0,0,1-.714-1.286,62.567,62.567,0,0,1-1.933-6.9c-.118.533-.589,1.22-1.036.907a.922.922,0,0,1-.237-.309,6.906,6.906,0,0,0-3.939-2.768c-1.558-.506-3.2-.743-4.741-1.3a12.119,12.119,0,0,1-2.463-1.226,1.939,1.939,0,0,0-.118,1.979,1.586,1.586,0,0,0,1.782.746c.342-.112.631-.349.97-.467a.759.759,0,0,1,.944.27c.145.312-.072.69.036,1.019.161.5.914.536,1.177.99a.916.916,0,0,1-.247,1.059,4.432,4.432,0,0,1-.993.612,19.755,19.755,0,0,0-2.857,2.479,3.45,3.45,0,0,1-3.482.891c.273-1.391-1.381-2.41-1.687-3.794-.1-.457-.049-.94-.191-1.384a4.5,4.5,0,0,0-1.246-1.572,6.177,6.177,0,0,1-1.693-4.488,6.231,6.231,0,0,0,0-1.713,1.284,1.284,0,0,0-1.164-1.072c-1.305.059-2.953.158-3.636-.957a1.026,1.026,0,0,1,0-1.286,1.241,1.241,0,0,1,.944-.161c.983.1,1.963.194,2.946.289a3.276,3.276,0,0,0,2.022-.237c.592-.358.848-1.315.3-1.739-.4-.309-1.115-.293-1.233-.783-.1-.411.358-.875.112-1.22-.174-.243-.569-.178-.809.007a5.294,5.294,0,0,1-.681.6,2.076,2.076,0,0,1-1.535-.148c-.506-.158-1.184-.171-1.427.3-.276.523.24,1.213-.03,1.739-.362.694-1.578.3-2.084.9-.579.684.394,1.71.2,2.584a1.611,1.611,0,0,1-1.588-.089,1.538,1.538,0,0,1-.664-1.433c.046-.395.253-.8.115-1.171a1.366,1.366,0,0,0-.694-.635q-1.43-.794-2.86-1.582a1.29,1.29,0,0,0,.49,1.473,5.09,5.09,0,0,1,1.22,1.134,1.491,1.491,0,0,1-.559,1.966.347.347,0,0,1-.286.049.4.4,0,0,1-.184-.247,6.081,6.081,0,0,0-2.472-3.239,2.936,2.936,0,0,0-3.748.6c-.187.27-.316.579-.48.865a4.991,4.991,0,0,1-4.495,2.186.867.867,0,0,1-.49-.115c-.283-.194-.27-.608-.227-.95.063-.483.122-.963.184-1.447a1.158,1.158,0,0,1,.319-.792c.326-.256.792-.1,1.207-.1a1.52,1.52,0,0,0,1.384-1.069,1.718,1.718,0,0,0-.48-1.71c-.187-.178-.44-.4-.342-.641a.533.533,0,0,1,.371-.25c.74-.214,1.526-.27,2.252-.526a2.342,2.342,0,0,0,1.611-1.526c.053-.23.076-.51.283-.625a.916.916,0,0,1,.329-.066,1.6,1.6,0,0,0,1.371-1.667,1.046,1.046,0,0,1,1.177.2,3.27,3.27,0,0,0,1.046.714c.766.21,1.506-.47,2.3-.473a2.878,2.878,0,0,0,.993,0c.319-.115.51-.431.753-.664s.674-.378.9-.125c-.066-.477-.128-.95-.194-1.424a2.8,2.8,0,0,0,2.279-.414l-2.482-.838a.535.535,0,0,1-.233-.125c-.181-.194,0-.5.145-.717.352-.529.411-1.4-.168-1.664a1.412,1.412,0,0,0-1.223.247c-.6.335-1.21.674-1.815,1.009-.056.345.365.542.625.773a1.048,1.048,0,0,1-.684,1.831,1.313,1.313,0,0,1,.233,1.108l-1.22.089a.524.524,0,0,1-.395-.079c-.131-.115-.112-.319-.145-.49a1.058,1.058,0,0,0-.894-.779,3.088,3.088,0,0,0-1.246.115.759.759,0,0,1-.539-.013.538.538,0,0,1-.21-.27,1.375,1.375,0,0,1,.276-1.322,7.574,7.574,0,0,1,1.039-.957,6.057,6.057,0,0,0,1.805-2.795c.671-.283,1.364-.664,2.039-.947a8.143,8.143,0,0,1,1.693-.569,8,8,0,0,1,1.66-.079c.756.013,1.516.026,2.272.043a5.468,5.468,0,0,1,1.989.286,1.855,1.855,0,0,1,1.213,1.483.455.455,0,0,1-.148.418.533.533,0,0,1-.286.066c-.628.02-.894.178-1.522.2a2.569,2.569,0,0,0,1.424.947c1.019.132,1.752-.924,2.223-1.841a.9.9,0,0,0,.937.832,1.889,1.889,0,0,0,.707-.276,13.9,13.9,0,0,1,6.592-1.7.71.71,0,0,1,.543-.783c.47-.092.891.312,1.118.733a3.944,3.944,0,0,0,.727,1.223c.358.316,1.052.3,1.193-.155.138-.437-.319-.812-.7-1.072s-.779-.733-.523-1.115a33.808,33.808,0,0,1,5.866-.944,2.5,2.5,0,0,0,.986-.171.767.767,0,0,0,.46-.812,2.242,2.242,0,0,1-2.334-.881,20.068,20.068,0,0,1,6.122.141l1.713,1.453c-.325.339-.759.658-.523,1a.729.729,0,0,0,.6.207c.414.007.829.016,1.24.016a48.2,48.2,0,0,1,14.716,30.827,1.454,1.454,0,0,0-1.236,1.611,6.393,6.393,0,0,0,1.2,2.357,3.593,3.593,0,0,1,.2.385Z" transform="translate(-489.424 -321.932)" fill="#e4bbab"/>
    <line id="Línea_57" data-name="Línea 57" x2="251" transform="translate(0 180.042)" fill="none" stroke="#3b3b3b" stroke-miterlimit="10" stroke-width="2"/>
    <circle id="Elipse_92" data-name="Elipse 92" cx="4.171" cy="4.171" r="4.171" transform="translate(99.381 14.278)" fill="none" stroke="#1b516a" stroke-miterlimit="10" stroke-width="2"/>
    <circle id="Elipse_93" data-name="Elipse 93" cx="4.171" cy="4.171" r="4.171" transform="translate(222.62 93.705)" fill="none" stroke="#1b516a" stroke-miterlimit="10" stroke-width="2"/>
    <circle id="Elipse_94" data-name="Elipse 94" cx="4.171" cy="4.171" r="4.171" transform="translate(194.147 52.154)" fill="none" stroke="#1b516a" stroke-miterlimit="10" stroke-width="2"/>
    <circle id="Elipse_95" data-name="Elipse 95" cx="4.681" cy="4.681" r="4.681" transform="translate(166.273 86.878)" fill="#1a88a4"/>
    <circle id="Elipse_96" data-name="Elipse 96" cx="6.17" cy="6.17" r="6.17" transform="translate(179.819 70.345)" fill="#e4bbab" opacity="0.5"/>
    <path id="Trazado_279" data-name="Trazado 279" d="M784.044,373.015a8.723,8.723,0,0,0-12.335.153c-3.364,3.448-8.167,20.863-8.167,20.863s17.29-5.233,20.655-8.681a8.723,8.723,0,0,0-.153-12.335Zm-9.062,9.29a4.042,4.042,0,1,1,5.716-.071,4.042,4.042,0,0,1-5.716.071Z" transform="translate(-591.816 -302.896)" fill="#1a88a4"/>
  </g>
</svg>
