<svg xmlns="http://www.w3.org/2000/svg" width="32.16mm" height="20.93mm" viewBox="0 0 91.18 59.33">
  <defs>
    <style>
      .cls-1 {
        fill: #ea8c8c;
      }

      .cls-2 {
        fill: #e4bbab;
      }

      .cls-3, .cls-4 {
        fill: #1a88a4;
      }

      .cls-3 {
        stroke: #1a88a4;
        stroke-miterlimit: 10;
      }
    </style>
  </defs>
  <g id="Capa_4" data-name="Capa 4">
    <g id="Trayecto">
      <path class="cls-1" d="M261.26,482.24a59.91,59.91,0,0,1-18.92,3.14,58.23,58.23,0,0,1-9.53-.84,44.53,44.53,0,0,1-9.39-2.52l-1.18-.5-1.17-.59c-.78-.4-1.41-.79-2.13-1.22A46.46,46.46,0,0,1,215,477a36.88,36.88,0,0,1-6.86-6.87,27.66,27.66,0,0,1-4.51-8.83,25.1,25.1,0,0,1-.78-9.84,25.75,25.75,0,0,1,2.91-9.27,26,26,0,0,1,6.06-7.42,30.8,30.8,0,0,1,8-4.9,43,43,0,0,1,4.32-1.58c.72-.22,1.44-.43,2.19-.63s1.51-.35,2.26-.49a77.09,77.09,0,0,1,17.92-.93c3,.14,5.93.47,8.87.89l8.76,1.43h0l1.9.4-1.92-.27h0l-8.83-.82c-2.94-.21-5.88-.33-8.82-.27a75.34,75.34,0,0,0-17.33,2.1c-5.47,1.53-10.84,4-14.73,7.89a21.93,21.93,0,0,0-4.66,6.58,20.84,20.84,0,0,0-1.84,7.7,19.81,19.81,0,0,0,1.14,7.68,21.7,21.7,0,0,0,4,6.62,30.88,30.88,0,0,0,6,5.23,39.37,39.37,0,0,0,3.48,2.07c.57.29,1.23.63,1.79.87l.83.35.89.3a36.55,36.55,0,0,0,7.84,1.5,49.73,49.73,0,0,0,8.16.16,50.41,50.41,0,0,0,15.71-3.75,5,5,0,0,1,3.85,9.24l-.32.11Z" transform="translate(-202.66 -426.05)"/>
    </g>
  </g>
  <g id="Capa_2" data-name="Capa 2">
    <g>
      <path id="Oceania" class="cls-2" d="M258.9,461.76c-.1-.18.19-.36.37-.27s.27.3.4.45.38.27.52.12,0-.45-.17-.61a11.21,11.21,0,0,0-2-1.63,2.88,2.88,0,0,0-1.2-.5.87.87,0,0,0-.61.11.5.5,0,0,0-.18.57c.09.2.33.28.53.35a3,3,0,0,1,1.76,3.19c-.42-.2-.49-.84-.89-1.09s-1,0-1.48.37l-1.3,1a4.27,4.27,0,0,0-.93.87,2.38,2.38,0,0,0-.34,2,4.68,4.68,0,0,1,.45,1.61.55.55,0,0,0,0,.36.41.41,0,0,0,.19.12,1.59,1.59,0,0,0,1.55-.31c.19-.17.35-.38.55-.53a1.57,1.57,0,0,1,1.74,0,6.19,6.19,0,0,1,1.36,1.3.9.9,0,0,0,.75.39,1.47,1.47,0,0,0,1.37-.51,1.65,1.65,0,0,0,.25-.68,4.39,4.39,0,0,0-.86-3.4c-.43-.53-1-.94-1.42-1.45a2.47,2.47,0,0,1-.71-1.88l.6,0" transform="translate(-202.66 -426.05)"/>
      <path id="Nueva_Zelanda" data-name="Nueva Zelanda" class="cls-2" d="M263.26,468.37a7.38,7.38,0,0,0-.93,1.61.82.82,0,0,0-.07.29.46.46,0,0,0,.35.46,1,1,0,0,0,1-.61,4.06,4.06,0,0,0,.44-1.48c0-.42,0-1-.24-1.13s-.39,0-.51.25a1.81,1.81,0,0,0-.16.78" transform="translate(-202.66 -426.05)"/>
    </g>
    <path id="Groenlandia" class="cls-2" d="M232.41,440.71a1.47,1.47,0,0,1-.66.47.58.58,0,0,0,.69.46c.28,0,.61-.1.8.18a1.09,1.09,0,0,1,.16.46l.33,1.45c.09.41.24.88.54,1s.57-.29.83-.55c.67-.69,1.61-.64,2.36-1.17a.55.55,0,0,0,.26-.36,1.9,1.9,0,0,1,0-.35c.09-.26.42-.05.6-.21a.35.35,0,0,0,.1-.18c.09-.35-.17-.71-.1-1.06a.71.71,0,0,1,.57-.51c0-.22.05-.49-.08-.61s-.47.25-.72.2-.32-.85-.64-1c-.13-.07-.29,0-.43.06a3.22,3.22,0,0,1-1.46.27c-.29,0-.63-.06-.84.24-.08.12-.12.27-.21.38-.24.29-.61,0-.93-.05a1.15,1.15,0,0,0-1.24.93" transform="translate(-202.66 -426.05)"/>
    <path id="America" class="cls-2" d="M216.72,440.24a2.59,2.59,0,0,0-2.79.47,6.45,6.45,0,0,1,.82.34c0,.49-.81.07-.88.55s.42.63.27.91l.61.25-.75.87c.89.42,1.7-1,2.65-1.09a2.06,2.06,0,0,1,1.6.91,4.68,4.68,0,0,1,1,1.81c.09.35.14.73.2,1.1a14.18,14.18,0,0,0,1.34,4.22,2.69,2.69,0,0,0-.26-1.82c.58.49.54,1.67,1,2.42.59,1.07,1.92,1,2.5,2a6.84,6.84,0,0,0,.41.86c.18.25.52.34.67.06a.81.81,0,0,1,.12.75,4.05,4.05,0,0,1-.32.7,3.92,3.92,0,0,0,0,3.33c.17.34.38.63.53,1a6,6,0,0,1-.16,3.41,34.25,34.25,0,0,0-.79,4.76,3.47,3.47,0,0,0,.3,2.24.9.9,0,0,0,1.55-.06,2.3,2.3,0,0,1-.38-2c.14-.72.43-1.38.51-2.12a2.27,2.27,0,0,0,1.47-1.31A3.48,3.48,0,0,0,229,463a2.58,2.58,0,0,1,.16-.56c.19-.36.56-.41.85-.6a1.73,1.73,0,0,0,.7-1.17,9,9,0,0,1,.15-1.28c.16-.52.61-.87.66-1.43a1.41,1.41,0,0,0-.74-1.28,3.21,3.21,0,0,1-1.15-.76c-.25-.32-.37-.79-.61-1.14-.49-.74-1.35-.77-1.93-1.38a1.5,1.5,0,0,0-.47-.44.34.34,0,0,0-.43.34.43.43,0,0,1,.09-.49c-.33-.25-.61.46-1,.68s-.66-.06-.75-.47c-.05-.21,0-.45-.08-.65s-.3-.42-.44-.65-.12-.68.1-.7a.32.32,0,0,0-.49-.21c-.19.08-.37.24-.56.17s-.29-.36-.34-.62a1.79,1.79,0,0,1,.09-1.15.62.62,0,0,1,1-.15,2.07,2.07,0,0,1,.58,1.15,2.67,2.67,0,0,0,.28.88c.16.24.49.3.62,0a1.73,1.73,0,0,1-.25-1.41,4.56,4.56,0,0,1,.57-1.29l1.15-2c.13-.23.28-.47.49-.51s.69.45,1,.25.23-.77,0-1a1.09,1.09,0,0,0-.87-.27,1.89,1.89,0,0,1,1.16-.48c0,.6.6,1,1,.72a.44.44,0,0,0,.18-.38.57.57,0,0,0-.07-.22,4.69,4.69,0,0,0-3.39-2.81,1.71,1.71,0,0,1-.77,1.58,1,1,0,0,1-1.34-.56.76.76,0,0,1-.1-.3.58.58,0,0,1,.52-.64c.27,0,.52.11.79.11a.57.57,0,0,0,.56-.59,1,1,0,0,1,0-.35c0-.1.12-.17.2-.12a1.65,1.65,0,0,0,1.2,1.33,1.69,1.69,0,0,0,1.51-.7,5,5,0,0,0-3.47-1.7,1.45,1.45,0,0,0-.86.17,7,7,0,0,0-.72.64.63.63,0,0,1-.82.11.81.81,0,0,0-.39-.9,2.49,2.49,0,0,0-.86-.13c-.37-.05-.72-.24-1.09-.3a.91.91,0,0,0-1,.46,2.55,2.55,0,0,0,1.32.64l-1.25-.05-2.93-.1" transform="translate(-202.66 -426.05)"/>
    <path id="Europa_y_Asia" data-name="Europa y Asia" class="cls-2" d="M244.86,442.24c-.42-.72-1-1.52-1.68-1.18a3,3,0,0,0-.76.94c-.23.35-.61.62-.92.4a.8.8,0,0,1-.15-.95c.23-.4.81-.58.69-1.06,0-.1-.09-.18-.11-.28-.09-.38.28-.62.57-.69-.26.07-.52-.21-.62-.54a3.11,3.11,0,0,1-.06-1.06c.27-.22.59.16.77.51s.46.76.75.6.43-.94.76-.82.23.45.39.63.68,0,.91-.41.5-.85.86-.75c-.43.22-.91-.53-.69-1.06-.16-.25-.47.11-.49.44a3,3,0,0,1,0,1c-.22.49-.78.24-1.14-.06a.94.94,0,0,1-.29-.36c-.18-.47.23-.93.58-1.17,1-.71,2.2-1.44,3.33-1a.77.77,0,0,1,.51.51c.07.28-.16.64-.34.5L250,436a2.1,2.1,0,0,0,.8-.23c.42-.26.73-.78,1.15-1a.69.69,0,0,1,.93.79c.4-.85,1.31-.77,2-1,.29-.1.56-.27.85-.37,1.74-.66,3.53.88,5.33.74a.28.28,0,0,0,.17-.07c.12-.14,0-.44.07-.62s.28-.12.43-.05a16.23,16.23,0,0,0,2.6,1.08,3.31,3.31,0,0,0,1.35.23,3.7,3.7,0,0,1,1.1-.06,1,1,0,0,1,.67,1,1,1,0,0,1-.91.87c-.4.07-.85.12-1.09.56s-.13,1.38-.52,1.73-.9-.25-.92-.86a3.16,3.16,0,0,1,.53-1.63c-.69.78-1.87.34-2.5,1.21a1.94,1.94,0,0,1-.17,2.47c-.25.18-.57.27-.7.59a2.27,2.27,0,0,0,0,.94c0,.32,0,.72-.27.8s-.41-.17-.51-.42a4.28,4.28,0,0,0-.29-.76c-.15-.22-.45-.28-.56,0a2.59,2.59,0,0,1,.08,3.13c-.3.34-.72.56-.83,1.07a2.66,2.66,0,0,1-.1.52.3.3,0,0,1-.48.13.61.61,0,0,1-.06-.65c-.1.41.27.74.4,1.13a1,1,0,0,1-.34,1.14c-.33.16-.72-.13-.81-.57l-.16.28-.5-1.16-.32.11c0-.67-.52-1.23-1-1.18a1.4,1.4,0,0,0-1,1.33,6.5,6.5,0,0,1-.06,1c-.08.31-.36.57-.57.38a.86.86,0,0,1-.18-.52,4.4,4.4,0,0,0-.83-2.37,3.58,3.58,0,0,0-1.7-.78,4.33,4.33,0,0,1-1.54-1,.71.71,0,0,0,.24.85,1.32,1.32,0,0,0,.76.13.76.76,0,0,1,.7.31,1.18,1.18,0,0,1,0,1.11,2,2,0,0,1-.69.71,8.69,8.69,0,0,1-1,.59.39.39,0,0,1-.33.06.68.68,0,0,1-.24-.34c-.48-1-.95-2-1.42-3.06-.16-.35-.31-.86-.07-1.12a4.65,4.65,0,0,0-1.13-.82l-.43.46-.7-1.35a.62.62,0,0,0-.25.65" transform="translate(-202.66 -426.05)"/>
    <g>
      <path id="Africa" class="cls-2" d="M242.42,447.67a9.24,9.24,0,0,1-.92,2.11,5.12,5.12,0,0,0,.41,4.66,1.14,1.14,0,0,0,.45.4c.52.22,1-.46,1.57-.49a.29.29,0,0,1,.18,0,.5.5,0,0,1,.11.17.45.45,0,0,0,.68.16,4.52,4.52,0,0,0,.07,2.07,7.32,7.32,0,0,1,.23.8,7.89,7.89,0,0,1-.25,2.25,4.53,4.53,0,0,0,.55,2.83,6.1,6.1,0,0,1,.65,1.11,2.79,2.79,0,0,0,.29.75c.32.41.86.13,1.13-.33s.36-1.07.59-1.56a4.87,4.87,0,0,0,.67-1.42,2.4,2.4,0,0,1,.17-1c.11-.17.3-.22.44-.37a1.44,1.44,0,0,0,.19-1.1,7.33,7.33,0,0,1-.19-1.14,4.47,4.47,0,0,1,.83-2.15,7,7,0,0,0,.71-2.35,1,1,0,0,1-.83-.07,1.4,1.4,0,0,1-.37-.53,10.25,10.25,0,0,1-.57-1.4,5.55,5.55,0,0,0-.42-1,4,4,0,0,1-.39-.59c-.13-.28-.15-.62-.28-.89a1.26,1.26,0,0,0-1.21-.62.63.63,0,0,0-.38.07c-.07.05-.13.14-.21.18s-.33,0-.48-.09l-.49-.28a.63.63,0,0,1-.25-.21,3,3,0,0,1-.12-.36.65.65,0,0,0-.55-.43,1.39,1.39,0,0,0-.65.16l-1.41.57" transform="translate(-202.66 -426.05)"/>
      <path id="Madagascar" class="cls-2" d="M252.81,455.39a.85.85,0,0,0-.47.71,4,4,0,0,0,0,.59,5.77,5.77,0,0,1,0,.72,1.61,1.61,0,0,0,0,.44.43.43,0,0,0,.22.32A.34.34,0,0,0,253,458a1.77,1.77,0,0,0,.18-.42,7.52,7.52,0,0,0,.3-2.91.59.59,0,0,0-.51.37.82.82,0,0,1-.11.21.11.11,0,0,1-.18,0" transform="translate(-202.66 -426.05)"/>
    </g>
  </g>
  <g id="Capa_3" data-name="Capa 3">
    <g id="Grupo_Reloj" data-name="Grupo Reloj">
      <ellipse id="Reloj_medio" data-name="Reloj medio" class="cls-3" cx="37.94" cy="27.55" rx="5.26" ry="5.34"/>
      <path id="Aleta_mayor" data-name="Aleta mayor" class="cls-3" d="M233.33,451.43l-8.25-8a2.55,2.55,0,0,1-.22-3.52,2,2,0,0,1,3.14-.25l8.25,8a3.5,3.5,0,0,0-2,1.29A4.24,4.24,0,0,0,233.33,451.43Z" transform="translate(-202.66 -426.05)"/>
      <path id="Aleta_menor" data-name="Aleta menor" class="cls-3" d="M245.86,448.2l4.19-4.22a2.17,2.17,0,0,1,3,.59,2.81,2.81,0,0,1,0,3.12c-1.39,1.41-2.79,2.81-4.18,4.21a5.3,5.3,0,0,0-.87-2A4.51,4.51,0,0,0,245.86,448.2Z" transform="translate(-202.66 -426.05)"/>
    </g>
  </g>
  <g id="Capa_1" data-name="Capa 1">
    <g id="Avion">
      <g id="sombra_del_avion" data-name="sombra del avion">
        <g id="layer1">
          <g id="rect3052">
            <path class="cls-4" d="M292.54,443.14c-1-1-4.41,1.6-6,2.87-.45.41-.87.76-1.26,1.17l-4.13,4.34a.62.62,0,0,1-.63.23l-6.4-.66c-.39-.09-.71-.41-.16-.93l.37-.39a.58.58,0,0,0-.05-.8l-.52-.51a.54.54,0,0,0-.78,0l-2.17,2.28c-.07.07-.09.06-.18.05l-6.12-.57c-.56-.12-.48-.47-.12-.89l.68-.71a.58.58,0,0,0-.05-.8l-.52-.51a.54.54,0,0,0-.78,0l-2.25,2.36s0,0-.07,0l-6.48-.71a1.42,1.42,0,0,0-1.19.52l-1.28,1.31a.27.27,0,0,0,.1.47s9.69,2.63,13,4a55.8,55.8,0,0,1,7.19,3.91c.3.19.53.41.39.74l-9.1,9.55-.38.4c-1.13,1.2-1.33,2.39-2.23,2.33l-7.43-.36a1.55,1.55,0,0,0-1.2.43l-.39.42c-.17.2-.19.38,0,.54l6.23,3.91a.41.41,0,0,1,.24.43l-.5,1.59,1.69-.46a.52.52,0,0,1,.51.24c1.24,1.92,2.49,3.83,3.73,5.74.18.23.35.39.62.16l.6-.63a2.44,2.44,0,0,0,.19-1.54l-1-7.16c0-.73,1-1.11,2.31-2.17l.38-.4,9-9.44h0l.05,0,.05,0s.57.08.59.09l.09.12a54.85,54.85,0,0,1,3.89,6.88c1.53,3.4,4.61,13.54,4.61,13.54.12.17.27.28.42.16L287.4,483a1.45,1.45,0,0,0,.36-1.11l-.78-6.52c0-.26,0-.31.09-.4l2.22-2.34a.57.57,0,0,0-.05-.8l-.51-.51a.56.56,0,0,0-.79,0l-.67.71c-.37.46-.63.5-.73,0l-.84-6.31c0-.14,0-.16,0-.22l2.17-2.27a.58.58,0,0,0-.05-.8l-.52-.52a.54.54,0,0,0-.78,0l-.37.39c-.46.59-.94.32-.95-.19l-.8-6.49a.69.69,0,0,1,.2-.62l4.15-4.35a17.79,17.79,0,0,0,1.16-1.39c1.25-1.74,3.75-5.66,2.61-6.08Z" transform="translate(-202.66 -426.05)"/>
            <path class="cls-4" d="M292.79,444l-.52-.39a.47.47,0,0,0-.37-.13,1.45,1.45,0,0,0-.51.09,5.78,5.78,0,0,0-1.15.51,20.56,20.56,0,0,0-2.21,1.46,29.21,29.21,0,0,0-3.92,3.65l-1.88,2-.47.49a2.55,2.55,0,0,1-.64.55,1.13,1.13,0,0,1-.57.07l-.35,0-.67-.08-5.41-.57h-.05a1.1,1.1,0,0,1-.62-.35.81.81,0,0,1-.11-.87,1.49,1.49,0,0,1,.35-.48l.29-.31.07-.07v0a.26.26,0,0,0,0-.11l-.54-.54c-.08-.07-.14,0-.16,0l-.59.62-1.19,1.25-.3.31-.08.07a.46.46,0,0,1-.27.19c-.23.05-.24,0-.27,0h-.11l-.86-.08-1.72-.16-3.43-.33h-.05a1.27,1.27,0,0,1-.35-.13.72.72,0,0,1-.36-.43.94.94,0,0,1,.21-.82,9.6,9.6,0,0,1,.72-.78c.16-.17.14-.15.15-.19a.23.23,0,0,0,0-.15l-.33-.32-.17-.18-.09-.07c-.14,0-.06-.09-.37.24l-.7.73-.69.72-.35.36-.17.19-.09.09-.1.09a.41.41,0,0,1-.25.08h-.09l-6.47-.72H255a1.46,1.46,0,0,0-.62.12,2.56,2.56,0,0,0-.5.44L252.77,451l-.05,0s.07-.09,0-.14,0,0,0-.05h0c3.66,1,7.31,2.06,10.92,3.28a31.2,31.2,0,0,1,5.26,2.31c.84.46,1.66.93,2.48,1.42l1.22.75c.21.14.39.24.62.42a1,1,0,0,1,.33.4.82.82,0,0,1,0,.6l0,.06,0,0-8.93,9.33a11.52,11.52,0,0,0-1.06,1.18c-.31.41-.55.87-.93,1.34a1.32,1.32,0,0,1-.88.5c-.35,0-.56,0-.85,0l-1.61-.08L256,472.2l-1.61-.09a1.53,1.53,0,0,0-1.31.34l0,0-.4.43a.44.44,0,0,0,0,.09s0,0,0,.05l0,0,3.33,2.1,1.66,1.05.83.53.42.26a.66.66,0,0,1,.33.65v.06l-.5,1.58-.3-.32,1.68-.45h0a.75.75,0,0,1,.76.38v0l3.72,5.75v0a.72.72,0,0,0,.18.18s0,0,.11-.05h0l.6-.62,0,0a2.29,2.29,0,0,0,.17-1.42v0l-1-7.16h0a1.11,1.11,0,0,1,.43-.86,4.64,4.64,0,0,1,.67-.52c.45-.31.88-.62,1.29-1v0l9.39-9.82.06-.05h.14l.05,0h-.23l.11-.11.12.11h0l-.24,0h0l.12-.13.13.12h-.23l.12-.14.12.14h0l-.22,0,.09,0h0a.14.14,0,0,1,.09,0h.08l.18,0,.18,0,.1,0s0,0,.17.08a7,7,0,0,1,.43.62l.76,1.22c.51.82,1,1.66,1.45,2.5a33.65,33.65,0,0,1,2.36,5.28c1.3,3.63,2.45,7.3,3.57,11v0a.37.37,0,0,0,.14.14.07.07,0,0,0,.1,0h0l.82-.86a1.91,1.91,0,0,0,.64-.9,2.89,2.89,0,0,0,0-1.13l-.13-1.18-.55-4.7h0a.64.64,0,0,1,.12-.48l.31-.32.62-.65,1.23-1.28a.49.49,0,0,0,.06-.69c-.18-.2-.42-.43-.61-.61-.5-.41-.88.36-1.29.72h0a1.26,1.26,0,0,1-.33.32.35.35,0,0,1-.26.07.33.33,0,0,1-.21-.19,4,4,0,0,1-.15-.87l-.23-1.71-.45-3.44-.05-.43,0-.22c0-.14.1-.16.13-.22l.6-.62,1.2-1.25c.19-.22.46-.39.42-.67s-.26-.44-.46-.65-.4-.44-.68-.39-.41.34-.62.52h0a.75.75,0,0,1-.63.35.54.54,0,0,1-.41-.57h0l-.43-3.58-.22-1.79-.11-.89a2.33,2.33,0,0,1,0-.46.81.81,0,0,1,.21-.41h0l2.55-2.67a35.64,35.64,0,0,0,2.49-2.73,26.33,26.33,0,0,0,2.05-3.06,15,15,0,0,0,.83-1.65,4.7,4.7,0,0,0,.27-.88Zm-1.7-1.38,1.45.57c.31.13.32.53.26.81a5.27,5.27,0,0,1-.27.88,12.73,12.73,0,0,1-.83,1.65,23.47,23.47,0,0,1-2,3.08,35.71,35.71,0,0,1-2.47,2.74L284.65,455h0a.83.83,0,0,0-.17.82l.12.89.22,1.79.45,3.58h0a.44.44,0,0,0,.32.47.65.65,0,0,0,.54-.32h0l.3-.31a.57.57,0,0,1,.39-.24c.34-.07.58.22.77.41s.48.38.49.73a.57.57,0,0,1-.15.44l-.3.31-1.19,1.26-.59.62c-.05.06-.12.11-.1.13l0,.21.06.43.46,3.42.23,1.72a4,4,0,0,0,.15.82c.09.26.37,0,.52-.23h0l.61-.65a.63.63,0,0,1,.9-.1c.24.22.43.41.65.64a.68.68,0,0,1-.07.92L288.07,474l-.61.65-.31.32c-.08.06-.06.2-.07.36v0l.57,4.7.14,1.18a3.06,3.06,0,0,1,0,1.21,1.45,1.45,0,0,1-.28.57l-.41.43-.82.86h0a.32.32,0,0,1-.37,0,.58.58,0,0,1-.22-.22h0v0c-1.13-3.67-2.3-7.34-3.61-10.95a33.15,33.15,0,0,0-2.37-5.22c-.46-.84-.94-1.67-1.45-2.49l-.77-1.21a4.36,4.36,0,0,0-.39-.57c0,.05-.53-.1-.47,0l.63.89-.85-.92h.24l-.12.13-.12-.12h0l.24,0h0l-.11.13-.13-.12h.22l-.12.11-.12-.11h0l.11,0h0l.14,0-9.35,9.85h0c-.42.36-.88.68-1.32,1s-.94.64-.91,1v0l1,7.16h0c0,.26,0,.53,0,.82a1.92,1.92,0,0,1-.26.85v0l0,0-.6.63h0a.8.8,0,0,1-.24.14.45.45,0,0,1-.34,0,1,1,0,0,1-.37-.31h0l-3.75-5.73v0h0a.27.27,0,0,0-.25-.12h0l-1.68.46-.44.12.13-.44.5-1.59v.06c0-.11,0-.1-.09-.17l-.42-.26-.84-.52-1.67-1.05-3.34-2.09h0a.63.63,0,0,1-.26-.45.72.72,0,0,1,.16-.46l.22-.23.2-.23h0a1.76,1.76,0,0,1,.83-.44,3.27,3.27,0,0,1,.87,0l1.61.07,3.23.15,1.62.08.77,0a.74.74,0,0,0,.47-.29c.3-.38.57-.88.9-1.32a12,12,0,0,1,1.1-1.23l8.89-9.37-.07.1c0-.11,0-.09-.11-.23s-.38-.25-.57-.37l-1.21-.74c-.81-.48-1.63-.95-2.46-1.39a29.82,29.82,0,0,0-5.16-2.24c-3.58-1.19-7.24-2.22-10.89-3.22h0a.74.74,0,0,1-.43-.48.65.65,0,0,1,.24-.66l0,0,1.1-1.14a3.05,3.05,0,0,1,.69-.6,2.39,2.39,0,0,1,.92-.21H255l6.47.69h-.05c-.35.15-.11,0-.09,0l.17-.18.34-.36.69-.73.69-.73a2.22,2.22,0,0,1,.48-.42.94.94,0,0,1,.85,0,1.14,1.14,0,0,1,.31.23l.18.17c.13.13.21.2.38.39a1,1,0,0,1,.22.79.9.9,0,0,1-.16.41,3,3,0,0,1-.21.23c-.2.23-.5.51-.63.69s-.09.23-.09.11-.05-.05.08,0h-.05l3.44.31,1.71.16.86.08h.11s.09,0-.06,0-.13.08-.11,0l.07-.08.3-.31,1.19-1.25.59-.63a1,1,0,0,1,1.4,0l.32.31.15.15.08.08.12.14a1.09,1.09,0,0,1,.19.71.89.89,0,0,1-.12.37.92.92,0,0,1-.2.26,5.71,5.71,0,0,0-.47.53c0,.05,0-.06,0-.07a1.11,1.11,0,0,0,.13,0h-.05l5.41.55.68.07.43,0a3.71,3.71,0,0,0,.36-.36l.47-.49,1.87-2c.64-.65,1.22-1.33,1.9-2a20.09,20.09,0,0,1,2.12-1.81,20.68,20.68,0,0,1,2.31-1.55A7,7,0,0,1,291.09,442.57Z" transform="translate(-202.66 -426.05)"/>
          </g>
        </g>
      </g>
      <path id="Avion_orginal" data-name="Avion orginal" class="cls-2" d="M293.54,442.23c-1-.94-4.39,1.64-5.92,2.89-.45.4-.86.75-1.24,1.15l-4.09,4.28a.66.66,0,0,1-.63.23l-6.4-.51c-.4-.08-.72-.39-.18-.9l.37-.38a.54.54,0,0,0-.06-.77l-.52-.49a.57.57,0,0,0-.79,0L271.94,450c-.07.07-.09.06-.18.06l-6.12-.43c-.57-.11-.49-.45-.14-.86l.67-.7a.54.54,0,0,0-.05-.77l-.52-.48a.56.56,0,0,0-.79,0l-2.22,2.32s0,0-.08,0l-6.48-.56a1.46,1.46,0,0,0-1.19.52l-1.26,1.29a.26.26,0,0,0,.1.46s9.72,2.34,13.08,3.63a54.8,54.8,0,0,1,7.23,3.63c.31.18.54.38.4.71l-9,9.4-.37.39c-1.11,1.17-1.3,2.33-2.2,2.29l-7.44-.2a1.64,1.64,0,0,0-1.2.43l-.38.41c-.17.2-.18.38,0,.53l6.27,3.65a.38.38,0,0,1,.25.41l-.48,1.54,1.68-.48a.52.52,0,0,1,.51.23l3.8,5.47c.18.21.35.36.62.13l.59-.61a2.32,2.32,0,0,0,.18-1.5L266.18,474c0-.7,1-1.08,2.29-2.14l.37-.39,8.9-9.28h0l.05,0,.05,0a5.93,5.93,0,0,1,.59.07l.1.11a51.2,51.2,0,0,1,4,6.56c1.57,3.25,4.76,13,4.76,13,.12.17.27.26.42.15l1.16-1.21a1.39,1.39,0,0,0,.35-1.08l-.85-6.28c0-.25,0-.3.08-.39l2.2-2.29a.56.56,0,0,0-.06-.78l-.52-.48a.56.56,0,0,0-.79,0l-.67.7c-.35.45-.62.49-.72,0l-.91-6.07c0-.14,0-.16,0-.22l2.14-2.23a.56.56,0,0,0-.06-.78l-.52-.48a.56.56,0,0,0-.79,0l-.36.38c-.45.59-.94.34-.95-.16l-.87-6.24a.64.64,0,0,1,.19-.6l4.1-4.29a17.31,17.31,0,0,0,1.15-1.36c1.22-1.7,3.68-5.54,2.53-5.92Z" transform="translate(-202.66 -426.05)"/>
    </g>
  </g>
</svg>
